<svg width="152" height="152" viewBox="0 0 152 152" fill="none" xmlns="http://www.w3.org/2000/svg">
<path d="M70.9 62.6C70.5 67.2 71.7 70.3 71.3 74.1C70.9 77.9 70.2 83.3 68.2 89C66.2 94.7 66.7 95.1 65.9 95.9C65.1 96.7 61.7 98.2 56.3 96.3C51 94.4 43 89.8 40.7 88.6C38.4 87.5 35.7 83.6 35 80.9" stroke="#2B00B0" stroke-width="2.2372" stroke-miterlimit="10"/>
<path d="M33.2002 60.9C34.3002 60.9 38.2002 59.8 40.1002 59.4" stroke="#2B00B0" stroke-width="2.2372" stroke-miterlimit="10"/>
<path d="M40.5 58.6C40.5 56.2 42.4 54.8 43.9 54.8C45.4 54.8 52.7 54.4 54.6 54.8C56.5 55.2 56.1 57.5 56.1 58.6C56.1 59.7 56.1 64.3 55.3 65.1C54.5 65.9 47.6 66.2 45.7 66.2C43.8 66.2 43 66.2 41.9 64.3C40.9 62.4 40.5 60.1 40.5 58.6Z" stroke="#2B00B0" stroke-width="2.2372" stroke-miterlimit="10"/>
<path d="M17.1 81.9C18.6 81.1 20.9 79.6 18.6 75C16.3 70.4 14 69.6 14 62.8C14 55.9 14.8 48.6 17.4 45.6C20 42.6 21.6 42.5 22.8 40.2C23.9 37.9 26.2 34.1 31.2 31.4C36.2 28.7 42.7 25.3 46.9 25.7C51.1 26.1 60.3 27.6 66.4 27.6C72.5 27.6 76.4 30.3 76 30.3C75.6 30.3 72.2 31.8 73.7 33C75.2 34.2 78.3 35.7 79.1 36.8C79.9 37.9 80.6 38.3 78.3 37.9C76 37.5 74.1 37.9 76 39.4C77.9 40.9 80.6 45.1 80.2 45.1C79.8 45.1 73.7 40.9 74.5 42.4C75.3 43.9 78.3 45.5 77.2 48.1C76.7 49.2 76.4 47 75.3 46.2C74.3 45.5 73.8 45.4 73.8 47.3C73.8 49.2 74.9 50 74.6 51.5C74.2 53 72.3 56.9 72.3 54.9C72.3 53 71.2 46.5 70.4 45.7C69.6 44.9 67.7 48.4 67 48.8C66.3 49.2 68.1 46.1 67.4 44.6C66.6 43.1 65.5 40.4 65.1 41.2C64.7 42 65.5 45.4 64.3 46.2C63.2 47 63.2 44.7 62.4 42.8C61.6 40.9 61.3 39.4 56.3 39C51.3 38.6 51.3 39.4 51.3 40.9C51.3 42.4 49.8 47 48.2 48.6C46.7 50.1 46.7 49.4 47.4 47.5C48.2 45.6 48.5 42.5 47.4 42.9C46.3 43.3 44.7 48.3 43.6 49.4C42.5 50.5 40.9 52.8 39 53.6C37.1 54.4 39.8 52.1 40.1 49.8C40.4 47.5 40.5 45.6 40.1 44.4C39.7 43.3 39 46.3 38.6 47.8C38.2 49.3 35.2 53.5 34 54.7C32.9 55.8 31.7 56.2 31.7 58.1C31.7 60 32.1 65.4 32.1 66.1C32.1 66.8 29.8 63 29.4 62.3" stroke="#2B00B0" stroke-width="2.2372" stroke-miterlimit="10"/>
<path d="M30.5001 80.4C29.4001 83.1 29.3001 87.3 30.5001 90C31.8001 92.9 28.4001 90.4 27.4001 87.3C27.0001 85.8 27.4001 83.9 26.6001 84.6C25.8001 85.4 25.5001 88 25.8001 88.8C26.2001 89.6 23.1001 86.9 22.7001 83.8C22.3001 80.7 23.5001 80 22.3001 80.4C21.2001 80.8 20.8001 81.2 18.1001 81.9" stroke="#2B00B0" stroke-width="2.2372" stroke-miterlimit="10"/>
<path d="M32.3999 78.5C30.8999 79.3 28.9999 80.4 25.8999 78.5C22.7999 76.6 19.3999 72.4 19.3999 68.9C19.3999 65.4 20.4999 62 22.4999 60.9C24.4999 59.8 27.4999 59 28.1999 61.3" stroke="#2B00B0" stroke-width="2.2372" stroke-miterlimit="10"/>
<path d="M56.2002 57.5C57.3002 57.4 60.4002 57 62.3002 57.4" stroke="#2B00B0" stroke-width="2.2372" stroke-miterlimit="10"/>
<path d="M67.6 54.8C66.1 54.8 64.2 54.8 63 55.6C61.9 56.4 62.2 59.4 62.2 60.6C62.2 61.8 62.2 64 63.7 64.8C65.2 65.6 71.7 65.2 72.5 64.8C73.3 64.4 73.3 59.1 73.3 57.5C73.3 55.9 72.9 55.6 72.2 55.2C71.5 54.8 68.4 54.8 67.6 54.8Z" stroke="#2B00B0" stroke-width="2.2372" stroke-miterlimit="10"/>
<path d="M25.5001 90.4C23.6001 90.4 15.2001 91.5 16.3001 93.5C17.4001 95.5 20.5001 95.8 24.3001 95.8C28.1001 95.8 38.5001 96.6 41.1001 97.3C43.8001 98.1 51.1001 101.9 51.8001 104.2C52.6001 106.5 50.3001 117.2 53.7001 121.8" stroke="#2B00B0" stroke-width="2.2372" stroke-miterlimit="10"/>
<path d="M61.1001 98C60.7001 99.9 60.7001 108.7 61.9001 111" stroke="#2B00B0" stroke-width="2.2372" stroke-miterlimit="10"/>
<path d="M16.0002 95.7C15.6002 97.6 16.0002 101.4 16.8002 102.6C17.6002 103.7 23.3002 103.4 25.2002 105.3C27.1002 107.2 30.2002 113.7 34.4002 116.4C38.6002 119.1 45.1002 122.1 50.1002 127.5C55.1002 132.9 57.0002 133.6 58.5002 134" stroke="#2B00B0" stroke-width="2.2372" stroke-miterlimit="10"/>
<path d="M61.5 134.4C63.8 132.5 74.5 120.2 76 117.6C77.5 115 80.2 113 80.2 108.8C80.2 104.6 81 97.3 83 95.3C85 93.3 89.1 85 90.7 83.1C92.3 81.2 97.6 77.7 101 76.2C104.4 74.7 105.2 74.7 105.6 76.2C106 77.7 105.2 80.4 103.3 81.6C101.4 82.7 97.9 85.4 97.2 88.5C96.4 91.6 96.4 91.6 96.1 93.1" stroke="#2B00B0" stroke-width="2.2372" stroke-miterlimit="10"/>
<path d="M97.8999 91.5C99.3999 91.9 104.4 91.9 108.2 91.5C112 91.1 121.2 90.4 123.9 89.2C126.6 88 132.7 88.4 133.1 89.6C133.5 90.7 130.8 92.7 128.5 93.4C126.2 94.2 115.5 98 113.6 98.4" stroke="#2B00B0" stroke-width="2.2372" stroke-miterlimit="10"/>
<path d="M114.7 102.6C115.8 101.8 123.5 99.2 126.2 98C128.9 96.9 131.9 95.3 133.1 94.2C133.6 93.7 133.8 91.7 132.1 91.4" stroke="#2B00B0" stroke-width="2.2372" stroke-miterlimit="10"/>
<path d="M129.3 97.3C129.7 97.7 128.5 100.7 126.6 101.9C124.7 103 116.3 107.3 114.4 108.4C112.5 109.5 107.1 113.8 104.8 114.9C102.5 116 98.6999 116 97.0999 119.5C95.5999 122.9 89.0999 134 87.8999 137.9" stroke="#2B00B0" stroke-width="2.2372" stroke-miterlimit="10"/>
<path d="M44.7002 59.7C45.5002 58.6 47.4002 57.4 49.3002 57C51.2002 56.6 52.7002 57.8 53.1002 58.1" stroke="#2B00B0" stroke-width="2.2372" stroke-miterlimit="10"/>
<path d="M64.6001 57.8C65.7001 57.4 66.9001 57 68.4001 57.4C69.2001 57.6 69.9001 58.5 70.3001 58.9" stroke="#2B00B0" stroke-width="2.2372" stroke-miterlimit="10"/>
<path d="M49.3002 58.2C48.8002 59.7 49.3002 61.6 50.4002 62C51.5002 62.4 52.7002 61.6 53.1002 60.5C53.5002 59.4 52.9002 58.1 51.9002 57.4C50.8002 56.7 49.7002 57.1 49.3002 58.2Z" fill="#2B00B0"/>
<path d="M66.3001 58.4C65.9001 59.7 66.3001 61.4 67.2001 61.7C68.1001 62 69.0001 61.4 69.3001 60.4C69.6001 59.4 69.2001 58.3 68.4001 57.7C67.6001 57.1 66.6001 57.4 66.3001 58.4Z" fill="#2B00B0"/>
<path d="M62.9002 66.1C64.0002 66.1 66.0002 67.6 66.0002 68.8C66.0002 69.9 64.9002 71.9 63.3002 71.9C61.7002 71.9 61.0002 71.4 60.2002 71" stroke="#2B00B0" stroke-width="2.2372" stroke-miterlimit="10"/>
<path d="M16.7 103.8C15.6 104.9 16.3 107.6 11 107.2" stroke="#2B00B0" stroke-width="2.2372" stroke-miterlimit="10"/>
<path d="M19.3999 108.7C24.7999 114.4 32.3999 126.3 35.0999 132.4C37.7999 138.5 37.7999 140.1 38.4999 142" stroke="#2B00B0" stroke-width="2.2372" stroke-miterlimit="10"/>
<path d="M120.8 37.5C120.8 33.3 121.9 27.9 123.5 24.5C125 21.1 126.2 20.3 127.7 21.4C129.2 22.5 132.7 27.5 134.2 31.4C135.7 35.2 137.3 41 134.6 42.5C131.9 44 125.8 43.3 123.9 41.4" stroke="#2B00B0" stroke-width="2.2372" stroke-miterlimit="10"/>
<path d="M117.3 35.2C116.9 34.1 112.3 27.9 110 25.6C107.7 23.3 104.3 23.3 103.5 25.6C102.7 27.9 104.3 32.9 105.4 35.9C106.5 39 110.4 44.3 112.7 45.1C115 45.9 118.8 46.6 120.4 42" stroke="#2B00B0" stroke-width="2.2372" stroke-miterlimit="10"/>
<path d="M127.6 43.6C129.5 45.1 133.3 47.4 134.1 49C134.9 50.5 134.9 52.4 134.1 52.8C133.3 53.2 128.7 53.6 128 52.4C127.2 51.3 124.2 45.5 123.4 44" stroke="#2B00B0" stroke-width="2.2372" stroke-miterlimit="10"/>
<path d="M118.1 45.9C117.3 47.8 117.7 50.5 118.1 52C118.5 53.5 121.5 54.3 123.1 54.3C124.7 54.3 124.6 50.9 124.6 48.6" stroke="#2B00B0" stroke-width="2.2372" stroke-miterlimit="10"/>
<path d="M22.8999 69.7C23.6999 72 27.4999 75.8 28.9999 75.8C30.4999 75.8 30.8999 73.5 30.8999 73.1" stroke="#2B00B0" stroke-width="2.2372" stroke-miterlimit="10"/>
<path d="M53.4998 78.1C55.1998 76.4 58.4998 76.2 60.3998 76.2C62.2998 76.2 65.3998 76.2 64.9998 77.7C64.5998 79.2 64.1998 81.5 62.6998 81.9C61.1998 82.3 56.9998 81.5 55.3998 80.8C53.8998 80 52.6998 78.9 53.4998 78.1Z" stroke="#2B00B0" stroke-width="2.2372" stroke-miterlimit="10"/>
<path d="M58.5 85.4C59.3 86.2 61.2 86.2 61.9 86.2" stroke="#2B00B0" stroke-width="2.2372" stroke-miterlimit="10"/>
<path d="M66.8999 96.5C69.1999 97.3 77.5999 100.7 79.0999 101.9" stroke="#2B00B0" stroke-width="2.2372" stroke-miterlimit="10"/>
<path d="M64.2002 108.4C66.9002 109.5 72.2002 114.5 73.0002 116.8" stroke="#2B00B0" stroke-width="2.2372" stroke-miterlimit="10"/>
<path d="M53.8999 116C57.2999 117.1 65.7999 119.8 68.7999 112.9" stroke="#2B00B0" stroke-width="2.2372" stroke-miterlimit="10"/>
<path d="M39.6998 54C41.0998 53.1 45.7998 50.6 47.3998 50.2C48.8998 49.8 51.5998 50.2 53.8998 50.6C56.1998 51 56.1998 51.4 56.1998 52.1C56.1998 52.9 55.0998 52.9 53.4998 52.5C51.9998 52.1 48.8998 51 47.3998 51.4C45.8998 51.8 42.3998 53.3 41.2998 54.1C40.0998 54.8 38.5998 54.8 39.6998 54Z" fill="#2B00B0"/>
<path d="M63.6001 52.3C63.6001 51.2 65.1001 50.8 66.7001 50.4C67.5001 50.2 69.8001 50.4 70.5001 50.8C71.3001 51.2 71.6001 51.2 71.6001 51.6C71.6001 52 70.1001 52 69.3001 51.6C68.5001 51.2 67.0001 51.2 65.9001 52C64.8001 52.8 63.6001 53 63.6001 52.3Z" fill="#2B00B0"/>
<g opacity="0.32">
<path d="M20.6 77.6C22.5 81.5 20.7 82.4 19.6 83L20.6 85C20.9 84.9 21.2 84.7 21.4 84.5L21.6 85C23.2 84.5 24.1 84.2 24.7 83.9C24.7 84.4 24.7 85.1 24.8 86C25.1 88.2 26.5 90.3 27.6 91.3C25.3 91.5 19.5 92.2 18.4 94.2C18.1 94.7999 18.1 95.4 18.4 96C19.9 98.5 23.6 98.8 27.4 98.8C31.3 98.8 41.5 99.6 43.9 100.3C46.7 101.1 53.3 104.9 53.9 106.5C54.1 107.1 54 108.8 53.9 110.6C53.7 115 53.4 121.1 56 124.5L57.8 123.2C55.7 120.4 56 114.9 56.2 110.8C56.3 108.5 56.4 106.9 56.1 105.9C55.1 102.9 47 99 44.6 98.3C41.7 97.5 31.2 96.7 27.5 96.7C24.7 96.7 21.8 96.5 20.6 95.2C21.8 94.3999 26.5 93.5 28.6 93.5V92L29.4 92.2L29.9 91.6C30 91.5 30.1 91.4 30.1 91.1C31 92.7 32.3 94.1 33.3 94.3C33.4 94.3 33.5 94.3 33.6 94.3C34 94.3 34.4 94.1 34.7 93.8C35.3 93.1 34.9 92.2 34.6 91.4C33.6 89.1 33.6 85.2 34.6 82.7L33.7 82.3C34.5 82.1 35.2 81.8 35.8 81.5L36 81.4L35 79.4L34.8 79.5C33.4 80.2 32 80.9 29.6 79.4C26.7 77.6 23.6 73.7 23.6 70.8C23.6 67.6 24.7 64.6 26.1 63.7C27.4 62.9 28.9 62.6 29.6 62.9C29.9 63 30.1 63.2 30.2 63.5L32.3 62.8C32 61.8 31.3 61.1 30.4 60.8C28.7 60.2 26.5 60.9 24.9 61.8C22.4 63.3 21.3 67.4 21.3 70.8C21.3 74.6 24.9 79.2 28.3 81.3C29.7 82.2 31 82.5 32.1 82.5H32.2C31.5 84.5 31.3 87 31.6 89.3C31.5 89.2 31.5 89 31.4 88.9C31.3 88.4 31.2 87.8 31.2 87.4C31.2 86.6 31.1 85.7 30.3 85.4C30 85.3 29.4 85.2 28.8 85.8C28.3 86.3 28 87.1 27.8 88.1C27.4 87.4 27 86.6 26.9 85.7C26.7 84.4 26.9 83.6 27 83.1C27.1 82.7 27.2 82 26.6 81.5C26 81 25.4 81.2 25 81.3C24.6 81.4 24.2 81.6 23.8 81.8C23.6 81.9 23.5 81.9 23.3 82C23.8 80.5 23.6 78.7 22.5 76.5C21.8 75.1 21.1 74.1 20.5 73.2C19 71 18 69.4 18 64.8C18 56.5 19.1 50.6 21.2 48.3C22.4 47 23.3 46.3 24.1 45.7C25.1 44.9 26 44.2 26.8 42.7C28.7 39 31.3 36.3 34.8 34.4C39.2 32 45.9 28.4 49.9 28.8C51.2 28.9 52.9 29.1 55 29.4C59.6 30 65.3 30.7 69.6 30.7C72.8 30.7 75.3 31.5 76.8 32.1C76.2 32.5 75.6 33.1 75.4 33.7C75.1 34.5 75.4 35.3 76.1 35.8C76.7 36.2 77.4 36.7 78.2 37.2C78.9 37.6 79.8 38.2 80.4 38.7C79.1 38.6 77.7 38.8 77.3 39.8C76.9 40.6 77.3 41.5 78.4 42.3C78.9 42.7 79.4 43.3 80 43.9C78.2 42.9 77.5 42.7 76.8 43.3C76.6 43.5 76.1 44 76.6 44.9C76.9 45.5 77.4 46 77.9 46.6C78 46.7 78.1 46.8 78.1 46.8C77.7 46.6 77.1 46.5 76.6 46.8C75.7 47.3 75.6 48.3 75.6 49.3C75.6 50.4 75.9 51.2 76.2 51.8C76.5 52.5 76.6 52.8 76.4 53.2C76.3 53.5 76.2 53.9 76 54.2C75.6 51.5 74.9 47.7 74 46.9C73.7 46.6 73.3 46.4 72.9 46.5C72.4 46.5 71.9 46.8 71.5 47.2C71.5 46.8 71.4 46.4 71.2 46.1C71.1 45.9 70.9 45.6 70.8 45.3C69.7 42.9 69.1 41.9 68.1 41.9C67.6 41.9 67.2 42.2 66.9 42.7C66.6 43.2 66.7 43.9 66.7 44.9C66.7 45.1 66.7 45.3 66.7 45.6C66.6 45.2 66.4 44.7 66.3 44.3L66.2 44.1C65.3 41.8 64.3 40.2 59.2 39.8C56 39.6 54.6 39.7 53.8 40.5C53 41.3 53 42.3 53 43C53 43.6 52.6 45 52.1 46.4C52.1 45.6 52 44.7 51.5 44.3C51.1 43.9 50.5 43.7 49.9 43.9C48.9 44.2 48.2 45.6 47.1 47.9C46.6 49 46 50.3 45.6 50.6C45.3 50.9 44.9 51.3 44.6 51.8C44.4 52 44.2 52.3 44 52.5C44 52.3 44.1 52.2 44.1 52C44.4 50.2 44.6 47.8 44.1 46.1C43.8 45.1 43 45.1 42.8 45.1C41.7 45.1 41.3 46.3 40.4 49.6C40.1 50.8 37.3 54.8 36.1 56C35.9 56.2 35.6 56.5 35.4 56.6C34.5 57.4 33.5 58.2 33.5 60.2C33.5 61.2 33.6 62.9 33.7 64.6C33.5 64.3 33.4 64.1 33.3 63.9L31.3 64.9C33.7 69.8 34.8 69.5 35.2 69.4C35.6 69.3 36.1 68.9 36.1 68.2C36.1 67.9 36.1 67.1 36 65.6C35.9 63.8 35.7 61.3 35.7 60.1C35.7 59.2 36 58.9 36.8 58.2C37.1 58 37.4 57.7 37.7 57.4C38.6 56.5 40.8 53.7 41.9 51.6C41.7 52.4 41.2 53.3 40.8 54C40.3 54.8 39.8 55.6 40.4 56.4C41 57.1 42 56.8 42.3 56.6C42.4 56.6 42.4 56.5 42.5 56.5C42.9 56.5 43.6 56.3 44.2 55.9C45.3 55.1 48.8 53.6 50.3 53.2C51.8 52.8 54.9 54 56.4 54.3C57.9 54.7 59.1 54.7 59.1 53.9C59.1 53.1 59.1 52.8 56.8 52.4C54.9 52.1 52.7 51.8 51.2 51.9C51.5 51.7 51.7 51.5 51.9 51.3C53.6 49.6 55.3 44.7 55.3 42.9C55.3 42.6 55.3 42.3 55.3 42.2C55.4 42.1 56 41.8 59.1 42.1C63.2 42.4 63.5 43.4 64.2 45L64.3 45.3C64.5 45.8 64.7 46.4 64.8 46.9C65.1 48.1 65.4 49.1 66.3 49.5C66.7 49.6 67.2 49.7 67.9 49.3C68.7 48.8 69 47.8 69 46.7C69.1 46.9 69.2 47.1 69.3 47.3C69.5 47.8 69.1 49.1 68.9 49.7C68.6 50.5 68.4 51.3 69 51.9C69.3 52.2 69.8 52.3 70.4 52C70.9 51.8 71.3 51.3 72 50.4C72.2 50.1 72.5 49.7 72.8 49.4C73 50.2 73.3 51.4 73.6 52.8C72.8 52.4 70.6 52.2 69.8 52.4C68.3 52.8 66.7 53.2 66.7 54.3C66.7 55.1 67.8 54.7 69 53.9C70.1 53.1 71.7 53.1 72.4 53.5C72.8 53.7 73.3 53.8 73.8 53.8C73.9 54.5 74 55.2 74.1 55.8C73.3 55.7 72.3 55.7 70.7 55.7C69 55.7 66.9 55.7 65.5 56.7C64.9 57.1 64.6 57.6 64.4 58.3C63 58.2 61.4 58.3 60.3 58.4C60.1 57.3 59.5 56.1 57.9 55.8C56.5 55.5 52.9 55.6 49 55.7C48.1 55.7 47.4 55.8 47 55.8C44.9 55.8 42.6 57.7 42.5 60.5C41.8 60.6 41.1 60.8 40.2 61.1C38.8 61.5 36.9 61.9 36.3 61.9V64C37.1 64 38.5 63.7 40.8 63.1C41.5 62.9 42.1 62.8 42.7 62.6C42.9 63.8 43.3 65.4 44.2 66.9C45.6 69.2 46.8 69.4 49 69.4C49.1 69.4 58 69.3 59.4 67.9C60 67.3 60.5 66.1 60.5 60.6C61.5 60.5 63.1 60.4 64.3 60.5C64.3 61 64.3 61.5 64.3 61.9C64.3 62.2 64.3 62.4 64.3 62.6C64.3 63.8 64.3 66.3 66 67.5V69.3C66.6 69.3 67.9 70.4 67.9 70.9C67.9 71.6 67.1 72.8 66.3 72.8C65 72.8 64.5 72.5 63.7 72.2L62.7 74.2C63.5 74.6 64.5 75.1 66.3 75.1C68.6 75.1 70.1 72.6 70.1 70.9C70.1 70 69.5 69.1 68.7 68.4C69.4 68.5 70.1 68.5 70.8 68.5C71.5 68.5 72.2 68.5 72.8 68.4C72.9 69.3 72.9 70.2 73 71.1C73.2 72.8 73.4 74.4 73.2 76.2C72.7 81.6 71.7 86.4 70.2 90.9C69.3 93.6 68.9 95.1 68.7 96.1C68.4 97.2 68.4 97.2 68.2 97.4C67.8 97.8 64.8 99.3 59.8 97.5C55.7 96.1 50 93 46.6 91.2C45.6 90.6 44.7 90.2 44.2 89.9C42.3 89 39.8 85.5 39 82.9L36.8 83.5C37.6 86.4 40.4 90.5 43.1 91.8C43.6 92.1 44.4 92.5 45.4 93C48.9 94.9 54.7 98 58.9 99.5C60.3 100 61.7 100.3 62.9 100.4C62.6 103 62.6 111.2 63.8 113.7L65.8 112.7C64.8 110.7 64.8 102.4 65.1 100.5C67.3 100.3 68.9 99.6 69.6 98.9C69.7 98.8 69.7 98.7999 69.7 98.7L69.4 99.7C71.9 100.5 80 103.9 81.3 104.9L82.6 103.1C80.9 101.8 72.8 98.5 70.3 97.7C70.4 97.3999 70.5 97 70.6 96.6C70.8 95.7 71.2 94.2 72.1 91.6C73.6 87 74.7 82 75.2 76.4C75.4 74.4 75.2 72.7 75 70.8C75.1 69.8 75 68.9 75 68C75.5 67.9 75.9 67.7999 76.1 67.7C76.9 67.2999 77.5 66.5 77.5 59.4C77.5 58.6 77.4 57.9 77.1 57.4C78 56 78.6 54 78.6 54C78.9 52.8 78.6 52 78.3 51.2C78.1 50.7 77.9 50.2 77.9 49.5C78.1 49.7 78.3 50.1 78.5 50.4C78.8 51 79.2 51.7 80.1 51.7C80.4 51.7 81 51.5 81.3 50.7C81.9 49.4 81.7 48.2 81.2 47.3C82.6 48.2 82.9 48.3 83.3 48.3H84.1L84.4 47.6C84.8 46.3 81.6 42.3 80.2 41C80.5 41 80.8 41 81.2 41.1C82.4 41.3 83.4 41.5 83.9 40.6C84.4 39.8 83.8 39.2 83.5 38.7C83.4 38.6 83.3 38.4 83.1 38.2C82.5 37.3 81 36.3 79.4 35.4C78.8 35 78.2 34.6 77.7 34.3C78.1 34 78.8 33.6 79.2 33.5H80.2V32.4C80.2 30.8 74.8 28.6 69.5 28.6C65.3 28.6 59.7 27.9 55.2 27.3C53.2 27 51.4 26.8 50.1 26.7C45.8 26.3 39.9 29.3 33.8 32.6C29.9 34.7 27 37.7 24.9 41.9C24.4 42.9 23.8 43.4 22.9 44.1C22.1 44.7 21 45.6 19.7 47C17.2 49.8 16 55.9 16 65C16 70.3 17.3 72.3 18.9 74.6C19.4 75.4 20 76.3 20.6 77.6ZM46.4 53.2C46.7 52.8 47 52.5 47.3 52.2C47.9 51.6 48.5 50.3 49.2 48.8C49.3 48.5 49.5 48.1 49.7 47.7C49.6 48.1 49.5 48.6 49.3 49C48.8 50.2 48.3 51.6 49.3 52.3C49.4 52.3 49.4 52.4 49.5 52.4C48.4 52.9 46.7 53.7 45.2 54.5C45.6 54.1 46 53.7 46.4 53.2ZM58 60C58 60.2 58 60.4 58 60.6C58 64.9 57.6 66.1 57.6 66.3C56.5 66.7 51.3 67.2 48.8 67.2C47 67.2 46.8 67.2 45.9 65.8C44.9 64.1 44.5 62 44.5 60.6C44.5 58.8 45.9 57.9 46.8 57.9C47.2 57.9 47.9 57.9 48.9 57.8C50.3 57.8 52.5 57.7 54.3 57.7C55.6 57.7 56.8 57.7 57.3 57.8C58 58 58.1 58.5 58 60ZM75 65.4C75 65.2 75 65 75 64.7L72.8 64.5C72.8 65 72.7 65.5 72.7 66C70.7 66.1 68 66.1 67.3 65.7C66.4 65.2 66.4 63.4 66.4 62.5C66.4 62.3 66.4 62 66.4 61.7C66.3 59.8 66.4 58.7 66.7 58.4C67.6 57.8 69.4 57.8 70.7 57.8C72.8 57.8 73.8 57.9 74.4 58C74.7 58.5 75.1 58.7 75.3 58.7C75.3 58.9 75.3 59.1 75.3 59.4C75.3 62.9 75.1 64.6 75 65.4Z" fill="#EF8134"/>
<path d="M53.7998 128.7C49.8998 124.5 44.9998 121.6 41.0998 119.3C39.8998 118.6 38.8998 118 37.8998 117.4C35.2998 115.8 33.0998 112.5 31.3998 109.8C30.4998 108.4 29.5998 107.1 28.8998 106.4C27.5998 105.1 25.1998 104.7 23.0998 104.4C22.2998 104.3 20.9998 104.1 20.5998 103.9C20.0998 103 19.6998 99.6 19.9998 97.9L17.7998 97.5C17.3998 99.6 17.6998 103.7 18.6998 105.2C18.3998 105.6 18.1998 106.1 17.9998 106.5C17.5998 107.6 17.1998 108.4 13.9998 108.2L13.7998 110.4C14.1998 110.4 14.4998 110.4 14.7998 110.4C18.2998 110.4 19.2998 108.9 19.9998 107.3C20.0998 107 20.2998 106.7 20.3998 106.5L19.9998 106.1C20.6998 106.3 21.5998 106.5 22.6998 106.7C24.3998 107 26.4998 107.3 27.2998 108.1C27.8998 108.7 28.5998 109.8 29.4998 111.1C31.3998 113.9 33.6998 117.4 36.6998 119.3C37.6998 119.9 38.7998 120.6 39.9998 121.3C43.7998 123.5 48.4998 126.3 52.1998 130.3C57.2998 135.8 59.3998 136.7 61.1998 137.1L61.6998 134.9C60.2998 134.6 58.4998 133.8 53.7998 128.7Z" fill="#EF8134"/>
<path d="M94.4998 85.8C95.7998 84.2 100.9 80.8 104.4 79.2C106 78.5 107 78.1 107.4 78.1C107.4 78.2 107.5 78.3 107.5 78.4C107.8 79.5 107.2 81.6 105.7 82.5C104.8 83.1 100.1 86 99.0998 90.1L97.9998 94.7L100.2 95.2L101.3 90.6C102 88 105.1 85.5 106.9 84.4C109.2 83 110.2 79.9 109.7 77.8C109.6 77.2 109.3 76.4 108.5 76C107.5 75.5 106.1 75.9 103.6 77C100.1 78.6 94.4998 82.1 92.7998 84.2C92.0998 85.1 90.9998 87 89.6998 89.3C88.1998 92 86.1998 95.4 85.1998 96.4C82.6998 98.9 82.1998 107.5 82.1998 110.6C82.1998 113.3 80.9998 114.9 79.6998 116.6C79.1998 117.3 78.5998 118.1 78.0998 118.9C76.6998 121.4 65.9998 133.6 63.7998 135.4L65.1998 137.1C67.5998 135.1 78.3998 122.8 79.9998 120C80.3998 119.3 80.8998 118.7 81.3998 118C82.7998 116.2 84.3998 114.1 84.3998 110.7C84.3998 105.7 85.2998 99.5 86.7998 98.1C87.9998 96.9 89.8998 93.7 91.5998 90.5C92.7998 88.5 93.8998 86.5 94.4998 85.8Z" fill="#EF8134"/>
<path d="M136.8 93.1C137.2 92.5 137.3 91.9 137.1 91.2C136.9 90.7 136.5 90.3 135.9 90C134 89.1 128.9 89 126.4 90.1C124.2 91 116.6 91.8 112.6 92.2L111.1 92.3C107.1 92.7 102.4 92.6 101.1 92.3L100.6 94.5C102.5 95 107.7 94.9 111.3 94.5L112.8 94.4C118.9 93.8 125 93.2 127.3 92.2C129.3 91.3 133.5 91.5 134.8 92C134.3 92.6 132.9 93.7 131.1 94.3C130.5 94.5 129.4 94.9 127.9 95.4C124 96.7 117.6 99 116.3 99.3L116.7 101.5C118.1 101.2 123.1 99.5 128.6 97.6C130 97.1 131.1 96.7 131.7 96.5C132.6 96.2 134 95.6 135.1 94.7C135.2 94.9 135.2 95.3 135.1 95.4C134.2 96.2 131.7 97.6 128.6 99C127.6 99.4 125.8 100.1 123.9 100.8C120.1 102.3 117.7 103.2 116.9 103.7L118.1 105.6C118.7 105.2 122.1 103.9 124.6 103C126.5 102.3 128.3 101.6 129.4 101.1C129.8 100.9 130.2 100.7 130.7 100.5C130.3 101.3 129.7 102.4 128.8 102.9C127.9 103.5 125.3 104.8 122.7 106.1C120 107.5 117.5 108.8 116.5 109.4C115.7 109.9 114.4 110.8 112.9 111.9C110.8 113.4 108.3 115.2 107.1 115.8C106.5 116.1 105.8 116.3 105.1 116.5C102.9 117.2 100.3 118 98.9998 120.9C98.3998 122.1 97.1998 124.5 95.7998 127.1C93.2998 131.7 90.4998 136.9 89.7998 139.4L91.8998 140C92.5998 137.7 95.4998 132.4 97.7998 128.1C99.1998 125.4 100.5 123.1 101.1 121.8C102 119.8 103.9 119.2 105.8 118.6C106.7 118.3 107.5 118.1 108.2 117.7C109.7 117 112.2 115.2 114.4 113.6C115.8 112.6 117.2 111.6 117.9 111.2C118.8 110.6 121.4 109.3 124 108C126.7 106.6 129.2 105.3 130.2 104.7C132.1 103.6 133.3 101.1 133.5 99.7C133.5 99.5 133.5 99.3 133.5 99.1C134.9 98.4 136.2 97.6 137 96.8C137.6 96.2 137.9 95 137.5 93.9C137.3 93.7 137.1 93.4 136.8 93.1Z" fill="#EF8134"/>
<path d="M51.9997 58C49.7997 58.4 47.5997 59.7 46.6997 61.2L48.5997 62.4C49.0997 61.6 50.5997 60.6 52.2997 60.3C51.7997 61.8 52.2997 63.7 53.3997 64.1C54.4997 64.5 55.6997 63.7 56.0997 62.6C56.2997 61.9 56.1997 61.2 55.8997 60.5L56.8997 59.5C56.0997 58.7 54.2997 57.5 51.9997 58Z" fill="#EF8134"/>
<path d="M71.6997 58.4C69.8997 57.9 68.4997 58.4 67.1997 58.8L67.8997 60.9C68.3997 60.7 68.7997 60.6 69.2997 60.5C68.8997 61.8 69.2997 63.4 70.1997 63.8C71.0997 64.1 71.9997 63.5 72.2997 62.5C72.3997 62.2 72.3997 61.9 72.3997 61.6C72.4997 61.7 72.4997 61.7 72.5997 61.8L74.1997 60.2C73.9997 60.1 73.9997 60 73.8997 60C73.3997 59.4 72.6997 58.6 71.6997 58.4Z" fill="#EF8134"/>
<path d="M39.0996 134C36.4996 128 28.7996 116 23.1996 110L21.5996 111.5C27.0996 117.4 34.4996 129.1 37.0996 134.9C38.8996 139 39.4996 141 39.8996 142.4C40.0996 143.1 40.2996 143.8 40.5996 144.4L42.6996 143.6C42.4996 143 42.2996 142.5 42.0996 141.8C41.5996 140.3 40.9996 138.2 39.0996 134Z" fill="#EF8134"/>
<path d="M133.6 46.4C135.3 46.4 136.9 46.1 138.1 45.4C141.7 43.3 139.7 36.7 138.2 32.9C136.6 28.9 133 23.7 131.3 22.5C130.4 21.9 129.6 21.6 128.8 21.9C127.6 22.2 126.6 23.4 125.4 26C123.8 29.7 122.6 35.2 122.6 39.5H124.8C124.8 35.5 125.9 30.4 127.4 26.9C128.5 24.4 129.1 24.1 129.3 24C129.5 24 129.8 24.2 129.9 24.3C131.2 25.3 134.5 30 136 33.8C138 38.8 138.3 42.7 136.9 43.5C134.6 44.8 129 44 127.5 42.5L125.9 44.1C126.8 45 128.4 45.7 130.2 46.1L129.9 46.5C130.5 47 131.2 47.5 132 48.1C133.5 49.2 135.7 50.7 136.1 51.5C136.6 52.5 136.6 53.5 136.5 53.9C135.5 54.2 132.4 54.3 131.9 53.9C131.2 52.8 128.1 47.1 127.4 45.6L125.4 46.6C125.7 47.3 126.6 49 127.6 50.7H126.5C126.5 51.8 126.5 54.7 126 55.3C124.4 55.3 122.4 54.5 122.2 53.9C121.8 52.2 121.6 50 122.2 48.5L121.7 48.3C123.2 47.5 124 46 124.5 44.6L122.4 43.9C121.5 46.7 119.6 47.4 116.2 46.3C114.5 45.7 110.8 41 109.6 37.8C107.9 33.4 107.2 29.7 107.7 28.2C107.9 27.7 108.2 27.4 108.7 27.3C109.6 27.1 111.1 27.4 112.3 28.6C114.6 30.9 119 36.8 119.3 37.7L121.4 37C120.9 35.5 116 29.2 113.9 27C112.3 25.4 110 24.6 108.2 25.1C106.9 25.4 105.9 26.3 105.5 27.5C104.6 30.2 106.3 35.6 107.4 38.6C108.6 41.8 112.6 47.5 115.4 48.5C116.7 48.9 117.8 49.1 118.8 49.1C119.1 49.1 119.4 49.1 119.7 49C119.3 51.2 119.7 53.5 120 54.5C120.6 56.9 124.4 57.6 126.1 57.6C128.2 57.6 128.6 55.2 128.7 52.7C129.3 53.8 129.8 54.7 130.1 55.2C130.8 56.2 132.4 56.5 134 56.5C135.6 56.5 137.2 56.2 137.6 56C139.1 55.2 139.1 52.6 138.1 50.7C137.5 49.2 135.5 47.8 133.6 46.4Z" fill="#EF8134"/>
<path d="M31.9998 76.7C30.9998 76.6 27.5998 73.4 26.8998 71.3L24.7998 72C25.5998 74.4 29.6998 78.9 31.9998 78.9C34.2998 78.9 34.9998 76.1 34.9998 75.1H32.7998C32.6998 75.5 32.3998 76.7 31.9998 76.7Z" fill="#EF8134"/>
<path d="M68.8999 80.5L68.9999 80C69.1999 79.4 68.9999 78.8 68.6999 78.3C67.7999 77.2 65.7999 77.1 63.3999 77.1C59.7999 77.1 57.1999 77.9 55.6999 79.3C55.1999 79.8 55.0999 80.3 55.1999 81C55.3999 82.4 56.9999 83.4 57.9999 83.8C59.2999 84.5 62.4999 85.2 64.6999 85.2C65.1999 85.2 65.6999 85.2 66.0999 85.1C67.9999 84.5 68.4999 82.2 68.8999 80.5ZM65.3999 82.9C64.2999 83.2 60.2999 82.5 58.8999 81.8C58.0999 81.4 57.5999 81 57.3999 80.8C58.1999 80.1 59.8999 79.4 63.2999 79.4C64.0999 79.4 66.0999 79.4 66.7999 79.7L66.6999 80C66.4999 81 66.0999 82.7 65.3999 82.9Z" fill="#EF8134"/>
<path d="M60.6997 88.2C61.6997 89.2 63.3997 89.3 64.8997 89.3V87C62.8997 87 62.3997 86.7 62.1997 86.6L60.6997 88.2Z" fill="#EF8134"/>
<path d="M57.2 117L56.5 119.1C58 119.6 61.1 120.6 64.3 120.6C67.5 120.6 70.7 119.6 72.6 115.9C73.8 117.1 74.7 118.3 75 119.1L77.1 118.4C76.2 115.7 70.6 110.5 67.7 109.3L66.8 111.4C68 111.9 69.8 113.3 71.4 114.8L70.8 114.6C68.3 119.9 61.9 118.5 57.2 117Z" fill="#EF8134"/>
</g>
</svg>
