<svg width="152" height="152" viewBox="0 0 152 152" fill="none" xmlns="http://www.w3.org/2000/svg">
<path d="M78.0001 109C74.0001 104 75.0001 102 74.0001 97C73.0001 92 70.0001 83 68.0001 79C66.0001 75 62.0001 68 63.0001 67C64.0001 66 68.0001 64 70.0001 68C72.0001 72 76.0001 78 77.0001 80" stroke="#2B00B0" stroke-width="2.2372" stroke-miterlimit="10"/>
<path d="M70.0002 66C70.0002 61 70.0002 59 69.0002 56C67.7002 52.1 67.0002 49 70.0002 49C73.0002 49 75.0002 51 76.0002 58C76.8002 63.9 79.0002 72 80.0002 74" stroke="#2B00B0" stroke-width="2.2372" stroke-miterlimit="10"/>
<path d="M74 49C74 47 73 44 75 43C77 42 81 43 81 49C81 55 82 58 83 62C84 66 85 69 85 71" stroke="#2B00B0" stroke-width="2.2372" stroke-miterlimit="10"/>
<path d="M83 59C83 55 84 52 84 50C84 48 84 44 87 45C90 46 90 55 90 60C90 65 90.6 67.8 92 72C93 75 95 80 99 85" stroke="#2B00B0" stroke-width="2.2372" stroke-miterlimit="10"/>
<path d="M98 83C99 80 100 72 101 69C102 66 104 65 106 66C108 67 108 70 107 77C106 84 107 88 107 91C107 94 105 104 100 107C95 110 92 118 90 122" stroke="#2B00B0" stroke-width="2.2372" stroke-miterlimit="10"/>
<path d="M9.99989 58C9.99989 54 6.99989 47 13.9999 36C20.9999 25 29.9999 20 35.9999 18C41.9999 16 50.9999 16 58.9999 21C66.9999 26 72.9999 38 72.9999 42" stroke="#2B00B0" stroke-width="2.2372" stroke-miterlimit="10"/>
<path d="M36 26C39 32 39 42 35 46C31 50 24 56 14 57" stroke="#2B00B0" stroke-width="2.2372" stroke-miterlimit="10"/>
<path d="M32 74C32 71.2 38 69 40 68C42 67 51 66 49 67C47 68 41 70 38 72C35.6 73.6 32 76 32 74Z" fill="#2B00B0"/>
<path d="M18.0002 75C19.0002 76 22.0002 77 24.0002 76C26.0002 75 27.0002 76 26.0002 77C25.0002 78 22.0002 78 20.0002 78C18.0002 78 17.0002 74 18.0002 75Z" fill="#2B00B0"/>
<path d="M11 59C11 61 12 63 13 65C14 67 17 72 17 74" stroke="#2B00B0" stroke-width="2.2372" stroke-miterlimit="10"/>
<path d="M44 46C46 48 48 50 49 53C50 56 54 53 58 54" stroke="#2B00B0" stroke-width="2.2372" stroke-miterlimit="10"/>
<path d="M74 33C77 31 82 32 86 30C90 28 94 27 96 28C98 29 106 27 112 29C118 31 124 37 119 43C114 49 102.1 55.9 98 60C95 63 93 67 94 70" stroke="#2B00B0" stroke-width="2.2372" stroke-miterlimit="10"/>
<path d="M124 36C129 40 136 44 139 52C142 60 142 66 141 69C138 78 141 77 143 78" stroke="#2B00B0" stroke-width="2.2372" stroke-miterlimit="10"/>
<path d="M111 86C114 81 118 77 123 75C128 73 130 73 132 73" stroke="#2B00B0" stroke-width="2.2372" stroke-miterlimit="10"/>
<path d="M30 141C37 136 38 136 42 131C46 126 60 112 67 112" stroke="#2B00B0" stroke-width="2.2372" stroke-miterlimit="10"/>
<path d="M72.0002 109C69.0002 112 64.0002 115 65.0002 117C66.0002 119 68.0002 127 74.0002 132C80.0002 137 85.0002 140 88.0002 138C91.8002 135.5 95.0002 132 97.0002 129" stroke="#2B00B0" stroke-width="2.2372" stroke-miterlimit="10"/>
<path d="M79 112C82 117 83 118 86 122C89 126 93 128 95 127C97 126 97 125 95 121" stroke="#2B00B0" stroke-width="2.2372" stroke-miterlimit="10"/>
<path d="M21 90C19 93 19 98 16 99C13 100 16 101 19 106C22 111 35 127 37 130" stroke="#2B00B0" stroke-width="2.2372" stroke-miterlimit="10"/>
<path d="M20 116C19 120 18.4 121.2 16 126C14 130 12 139 11 142" stroke="#2B00B0" stroke-width="2.2372" stroke-miterlimit="10"/>
<path d="M27 78C29 83 29 91 30 93C31 95 35 93 36 92C37 91 38 90 40 90" stroke="#2B00B0" stroke-width="2.2372" stroke-miterlimit="10"/>
<path d="M67 108C65.6 109.4 61 113 57 113C52 113 51 113 48 112C45 111 44 107 42 105C40 103 42 104 46 104C48 104 51.8 102.2 54 100C55 99 56 96 54 94C52 92 48.9 94.8 47 96C44 98 39 99 37 99C35 99 35 98 35 96C35 95 37 96 38 95C39 94 40 94 43 94C46 94 50 89 51 89C52 89 55 90 58 94C61 98 62 94 62 92C62 90 61 88 64 84C67 80 66.4 76.7 67 78C68 80 71.1 88.7 72 91C72.9 93.3 76 96 74 99C72.8 100.8 69 106 67 108Z" fill="#2B00B0"/>
<path d="M140.3 87C130.3 97 126.6 124.5 130.3 137" stroke="#2B00B0" stroke-width="2.7965" stroke-miterlimit="10"/>
<path d="M36.7998 73.9C37.2998 73.5 37.5998 74 38.5998 74C39.5998 74 44.5998 72 45.5998 71C46.5998 70 48.5998 69 47.5998 71C46.5998 73 42.7998 74.3 41.3998 74.6C38.9998 75.2 37.9998 74.6 37.3998 74.6C35.9998 74.7 35.7998 74.6 36.7998 73.9Z" fill="#2B00B0"/>
<g opacity="0.32">
<path d="M108.5 67C107.3 66.4 106.1 66.3 105 66.8C104 67.2 102.7 68.2 101.9 70.6C101.4 72.2 100.9 74.9 100.4 77.8C100.1 79.6 99.7 81.4 99.4 82.8C97.6 80 96.1 76.9 95 73.6C93.7 69.6 93.1 66.9 93.1 62C93.1 54.5 92.8 47.1 89.3 45.9C87.9 45.4 87 45.8 86.5 46.2C84.8 47.4 84.8 50.3 84.8 52C84.8 52.7 84.6 53.7 84.4 54.8C84.4 55.1 84.3 55.4 84.2 55.7C84 54.3 83.9 52.8 83.9 51C83.9 46.8 82 45 80.9 44.3C79.5 43.4 77.7 43.3 76.3 44C74.1 45.1 74.4 47.7 74.6 49.5C74.6 49.9 74.7 50.2 74.7 50.5C73.9 50 72.9 49.8 71.8 49.8C70.6 49.8 69.7 50.2 69.2 51C68.1 52.5 68.6 54.8 69.8 58.3C70.7 61 70.7 62.8 70.7 67.1C70.1 66.8 69.6 66.6 69.1 66.5C66.9 66.1 64.8 67.3 64 68.2C63 69.4 64 71.8 67.7 79C68 79.5 68.2 80.1 68.5 80.5C68.2 81.6 67.7 83.6 66 86C63 90 64 92 64 94C64 96 63 100 60 96C57 92 54 91 53 91C52 91 48 96 45 96C42 96 41 96 40 97C39 98 37 97 37 98C37 100 37 101 39 101C41 101 46 100 49 98C50.9 96.8 54 94 56 96C58 98 57 101 56 102C53.8 104.2 50 106 48 106C44 106 42 105 44 107C46 109 47 113 50 114C53 115 54 115 59 115C63 115 67.6 111.4 69 110C70.7 108.3 73.7 104.2 75.3 102C75.3 102.2 75.3 102.4 75.4 102.6C75.7 105.5 76 107.8 79.1 111.7L80.8 110.3C78.1 106.9 77.8 105.1 77.5 102.3C77.4 101.3 77.3 100.1 77 98.8C76 93.7 73 84.6 70.9 80.5C70.5 79.7 70.1 78.9 69.6 78C68.3 75.5 66 71 65.9 69.7C66.5 69.2 67.7 68.6 68.9 68.8C69.8 68.9 70.4 69.5 70.9 70.5C72.1 72.9 74 76 75.5 78.5C76.6 80.2 77.5 81.7 77.9 82.5L79.9 81.5C79.5 80.6 78.5 79.1 77.4 77.3C75.9 74.9 74 71.8 72.9 69.5C72.6 68.9 72.2 68.4 71.9 68H73.1C73.1 62.9 73.1 60.8 72 57.6C71.6 56.4 70.5 53.1 71.1 52.3C71.2 52.1 71.6 52.1 71.9 52.1C73.8 52.1 75.8 53.1 76.8 60.1C77.7 66.1 79.8 74.3 80.9 76.4L82.9 75.4C82 73.6 79.9 65.7 79 59.7C78.3 55.1 77.2 52.3 75.4 50.9H77C77 50.4 76.9 49.8 76.9 49.2C76.7 47.5 76.6 46.3 77.4 45.9C78 45.6 79 45.6 79.9 46.1C81.1 46.9 81.8 48.6 81.8 50.9C81.8 56.3 82.6 59.4 83.5 62.7C83.6 63.2 83.8 63.7 83.9 64.2C84.2 65.3 84.4 66.3 84.7 67.2C85.4 69.7 85.9 71.6 85.9 72.9H88.1C88.1 71.3 87.5 69.2 86.8 66.6C86.6 65.7 86.3 64.7 86 63.6C85.9 63.1 85.7 62.6 85.6 62.1C85.5 61.7 85.4 61.3 85.3 60.9H86C86 58.7 86.3 56.8 86.6 55.1C86.8 53.9 87 52.8 87 51.9C87 51 87 48.5 87.7 47.9C87.9 47.8 88.1 47.8 88.5 47.9C90.7 48.6 90.7 58.6 90.7 61.8C90.7 67.1 91.4 70 92.8 74.2C94.5 79.2 96.9 83.7 100 87.5L101.7 86.1C101.4 85.8 101.2 85.4 100.9 85.1C101.4 83.5 101.9 80.9 102.4 78C102.9 75.3 103.4 72.6 103.9 71.2C104.3 69.9 105 69 105.7 68.7C106.2 68.5 106.7 68.5 107.3 68.8C108.6 69.4 108.7 71.9 107.7 78.6C107 83.7 107.3 87.3 107.5 90C107.6 91.1 107.7 92 107.7 92.8C107.7 95.5 105.8 105.1 101.2 107.8C96.7 110.5 93.9 116.6 91.8 121C91.4 121.8 91.1 122.6 90.7 123.2L92.7 124.2C93 123.5 93.4 122.7 93.8 121.9C95.7 117.7 98.4 112 102.3 109.7C107.6 106.5 109.8 96.3 109.8 92.7C109.8 91.8 109.7 90.8 109.6 89.7C109.4 87 109.1 83.7 109.8 78.8C111.2 71.7 111.2 68.3 108.5 67Z" fill="#EF8134"/>
<path d="M12.8998 57.1C12.3998 52.9 11.5998 47.1 16.9998 38.6C24.2998 27.1 33.5998 22.7 38.3998 21.1C43.8998 19.3 52.5998 19.1 60.4998 24C68.2998 28.9 73.9998 40.6 73.9998 44.1H76.1998C76.1998 39.7 70.0998 27.4 61.6998 22.2C53.1998 16.9 43.6998 17.1 37.7998 19.1C32.6998 20.8 22.8998 25.5 15.1998 37.6C9.39976 46.8 10.1998 53.3 10.7998 57.6C10.8998 58.6 10.9998 59.5 10.9998 60.2H13.1998C13.0998 59.1 12.9998 58.2 12.8998 57.1Z" fill="#EF8134"/>
<path d="M15.8999 57.9L16.0999 60.1C23.7999 59.3 30.8999 55.6 37.7999 48.8C42.2999 44.3 42.0999 33.7 38.9999 27.5L36.9999 28.5C39.9999 34.5 39.5999 43.8 36.1999 47.2C29.6999 53.7 23.0999 57.2 15.8999 57.9Z" fill="#EF8134"/>
<path d="M42 70C40 71 34 73.2 34 76C34 78 37.6 75.6 40 74C43 72 49 70 51 69C53 68 44 69 42 70Z" fill="#EF8134"/>
<path d="M21.9997 80C23.9997 80 26.9997 80 27.9997 79C28.9997 78 27.9997 77 25.9997 78C23.9997 79 20.9997 78 19.9997 77C18.9997 76 19.9997 80 21.9997 80Z" fill="#EF8134"/>
<path d="M14.8998 69.2C15.8998 71.1 17.8998 74.7 17.8998 76H20.0998C20.0998 74.3 18.5998 71.4 16.7998 68.1C16.4998 67.5 16.1998 66.9 15.8998 66.5C14.8998 64.6 13.9998 62.7 13.9998 61H11.7998C11.7998 63.3 12.8998 65.4 13.8998 67.5C14.1998 67.9 14.4998 68.5 14.8998 69.2Z" fill="#EF8134"/>
<path d="M55.3997 57.2C56.7997 57 58.2997 56.6999 59.7997 57.0999L60.2997 54.9C58.3997 54.4 56.4997 54.7 54.9997 55C52.5997 55.4 52.2997 55.2999 52.0997 54.5999C50.9997 51.2999 48.8997 49.2 46.7997 47.2L45.1997 48.7999C47.1997 50.7999 48.9997 52.6 49.8997 55.4C50.4997 57.1 51.6997 57.5 52.9997 57.5C53.7997 57.5 54.5997 57.3 55.3997 57.2Z" fill="#EF8134"/>
<path d="M81.8998 34.5999C83.9998 34.3999 86.3998 34.0999 88.4998 32.9999C92.3998 31.0999 95.9998 30.2999 97.4998 30.9999C98.5998 31.4999 100.4 31.3999 103 31.2999C106.3 31.0999 110.3 30.8999 113.7 31.9999C117 33.0999 120.7 35.5999 121.6 38.8999C122.1 40.6999 121.6 42.4999 120.2 44.1999C117.3 47.5999 112 51.3999 107.4 54.7999C104 57.2999 101.1 59.3999 99.2998 61.0999C96.3998 63.9999 93.7998 68.3999 94.9998 72.1999L97.0998 71.4999C96.2998 69.1999 97.7998 65.5999 100.8 62.5999C102.4 60.9999 105.4 58.7999 108.6 56.4999C113.4 53.0999 118.8 49.1999 121.8 45.4999C123.7 43.1999 124.4 40.5999 123.6 38.0999C122.4 33.7999 117.8 30.8999 114.3 29.6999C110.6 28.3999 106.3 28.6999 102.8 28.7999C101 28.8999 98.9998 28.9999 98.3998 28.6999C95.1998 27.0999 89.6998 29.5999 87.3998 30.6999C85.5998 31.5999 83.4998 31.7999 81.4998 32.0999C79.1998 32.3999 76.9998 32.5999 75.2998 33.7999L76.4998 35.6999C77.8998 35.0999 79.7998 34.7999 81.8998 34.5999Z" fill="#EF8134"/>
<path d="M144.3 78.5999C143.5 78.3999 143.2 78.2 143 77.9C142.7 77.3 142.6 75.7 144 71.4C144.5 69.9 145.9 64 142 53.7C139.4 46.8 134.1 42.7999 129.4 39.2999C128.4 38.5999 127.5 37.9 126.6 37.2L125.2 38.9C126.1 39.6 127 40.2999 128 41.0999C132.4 44.3999 137.5 48.2 139.8 54.5C142.7 62.2 142.7 67.9 141.8 70.8C140.4 75 140.1 77.5 140.9 79C141.5 80.2 142.7 80.6 143.5 80.8C143.8 80.9 144.1 81 144.4 81.0999L145.4 79.0999C145.1 78.7999 144.7 78.6999 144.3 78.5999Z" fill="#EF8134"/>
<path d="M134 73.9C131.9 73.9 129.8 73.9 124.6 76C119.7 78 115.4 81.8 112.1 87.5L114 88.7C117.1 83.5 121 80 125.5 78.2C130.3 76.3 132.1 76.3 134.1 76.3V73.9H134Z" fill="#EF8134"/>
<path d="M89.3999 139.1C86.5999 140.9 80.7999 136.6 76.6999 133.2C72.0999 129.4 69.8999 123.6 68.7999 120.5C68.4999 119.7 68.1999 119 67.9999 118.6C67.6999 118 70.3999 115.7 71.7999 114.6C72.7999 113.7 73.8999 112.8 74.7999 111.9L73.1999 110.3C72.3999 111.1 71.2999 112 70.2999 112.9C69.7999 113.3 69.3999 113.7 68.9999 114V113C61.0999 113 46.5999 128.1 43.0999 132.4C40.0999 136.1 38.8999 136.9 35.3999 139.4C34.2999 140.2 32.9999 141 31.3999 142.2L32.6999 144C34.2999 142.8 35.5999 142 36.6999 141.2C40.3999 138.7 41.6999 137.7 44.8999 133.8C48.6999 129.1 60.5999 117.2 67.3999 115.5C65.9999 116.9 65.2999 118.3 65.9999 119.6C66.1999 119.9 66.3999 120.6 66.6999 121.3C67.8999 124.6 70.2999 130.8 75.2999 135C79.4999 138.5 84.1999 141.9 87.8999 141.9C88.8999 141.9 89.7999 141.7 90.6999 141.1C94.2999 138.7 97.5999 135.3 99.9999 131.8L98.0999 130.6C95.8999 133.6 92.5999 136.9 89.3999 139.1Z" fill="#EF8134"/>
<path d="M96.4996 128C95.2996 128.6 91.7996 127.1 88.8996 123.3C88.1996 122.4 87.6996 121.7 87.1996 121C85.3996 118.6 84.2996 117.2 81.9996 113.4L80.0996 114.6C82.4996 118.6 83.6996 120.1 85.3996 122.4C85.8996 123.1 86.4996 123.8 87.0996 124.7C89.6996 128.2 93.1996 130.4 95.7996 130.4C96.3996 130.4 96.9996 130.3 97.4996 130C100.7 128.4 99.7996 126.1 97.9996 122.5L95.9996 123.5C97.8996 127.3 97.5996 127.5 96.4996 128Z" fill="#EF8134"/>
<path d="M17.5996 99.9C16.7996 100.2 15.8996 100.6 15.6996 101.5C15.3996 102.6 16.0996 103.4 17.1996 104.7C17.9996 105.6 18.9996 106.9 20.0996 108.6C21.9996 111.8 27.6996 119.1 32.2996 125C34.9996 128.5 37.3996 131.6 38.0996 132.7L39.9996 131.5C39.1996 130.3 36.8996 127.4 34.0996 123.7C29.5996 117.9 23.8996 110.6 22.0996 107.5C20.9996 105.6 19.8996 104.3 18.9996 103.3C18.6996 102.9 18.2996 102.5 18.0996 102.2C18.1996 102.2 18.2996 102.1 18.3996 102.1C20.7996 101.3 21.5996 98.8 22.3996 96.4C22.7996 95.1 23.2996 93.7 23.9996 92.7L22.0996 91.5C21.2996 92.8 20.7996 94.3 20.2996 95.7C19.5996 97.6 18.9996 99.5 17.5996 99.9Z" fill="#EF8134"/>
<path d="M16.9999 127.5C15.5999 130.3 14.1999 135.4 13.0999 139.5C12.5999 141.3 12.1999 142.8 11.8999 143.7L13.9999 144.4C14.2999 143.4 14.6999 141.9 15.1999 140.1C16.1999 136.3 17.5999 131.2 18.8999 128.6C21.2999 123.8 21.9999 122.5 22.9999 118.4L20.7999 117.9C19.8999 121.6 19.3999 122.7 16.9999 127.5Z" fill="#EF8134"/>
<path d="M42 93.1V90.9C39.5 90.9 38.2 92.2 37.2 93.2C36.6 93.8 34.5 94.9 33.4 94.7C33.1 94.7 33.1 94.6 33 94.5C32.7 93.8 32.4 91.8 32.1 89.7C31.7 86.5 31.2 82.5 30 79.5L28 80.4C29.1 83.1 29.6 87 30 90C30.3 92.6 30.6 94.4 31.1 95.5C31.5 96.3 32.2 96.8 33.1 96.9C33.3 96.9 33.5 96.9 33.7 96.9C35.7 96.9 38 95.6 38.9 94.7C39.7 93.9 40.5 93.1 42 93.1Z" fill="#EF8134"/>
<path d="M141.3 88C130.5 98.8 127.3 127.2 130.9 139.4L133.6 138.6C129.8 126.1 134 99.2 143.2 90L141.3 88Z" fill="#EF8134"/>
<path d="M49.6998 73C50.6998 71 48.6998 72 47.6998 73C46.6998 74 41.6998 76 40.6998 76C39.6998 76 39.3998 75.5 38.8998 75.9C37.8998 76.7 38.0998 76.7 39.6998 76.7C40.2998 76.7 41.2998 77.3 43.6998 76.7C44.8998 76.3 48.6998 75 49.6998 73Z" fill="#EF8134"/>
</g>
</svg>
