<svg width="152" height="152" viewBox="0 0 152 152" fill="none" xmlns="http://www.w3.org/2000/svg">
<path d="M6 138.073C6 138.073 12.3748 123.26 19 115.573C25.5301 107.997 31.9167 107.872 37.5 99.5731C46.5787 86.0785 39.881 74.2989 41 58.0731C42 43.5731 42.0885 25.1802 56 20.0731C67.2458 15.9447 73.3904 33.0274 85 30.0731C95.5716 27.383 92.6041 12.0499 103.5 12.5731C109.085 12.8413 112.805 14.3765 116.5 18.5731C120.631 23.2652 118.781 26.9439 121.5 32.5731C125.884 41.65 134.575 42.2781 139.5 51.0731C146.5 63.5731 142.851 75.7944 138.5 89.5731C135.5 99.0731 132.028 103.046 131 113.073C130.011 122.717 133 138.073 133 138.073" stroke="#2B00B0" stroke-width="2.25"/>
<path d="M140.5 83.5731C140.5 83.5731 99.353 106.322 74.5 97.5731C49.6469 88.8239 54.5 82.12 54.5 82.12C54.5 82.12 64.5168 70.8006 77.5 62.3685M136 46.5731C136 46.5731 126.489 51.0138 120 52.5731C110.869 54.7674 105.184 52.1121 96 54.0731C89.6602 55.4268 83.2856 58.611 77.5 62.3685M77.5 62.3685C77.5 62.3685 88.4973 57.3087 96 55.62C105.163 53.5577 110.867 56.262 120 54.0731C126.483 52.5194 136.5 47.62 136.5 47.62" stroke="#2B00B0" stroke-width="2.25"/>
<ellipse cx="106.299" cy="43.1732" rx="1.81962" ry="3.76011" transform="rotate(-36.8575 106.299 43.1732)" fill="#2B00B0"/>
<ellipse cx="106.299" cy="43.1732" rx="1.81962" ry="3.76011" transform="rotate(-36.8575 106.299 43.1732)" fill="#2B00B0"/>
<ellipse cx="115.211" cy="40.1732" rx="1.81962" ry="3.76011" transform="rotate(-36.8575 115.211 40.1732)" fill="#2B00B0"/>
<ellipse cx="115.211" cy="40.1732" rx="1.81962" ry="3.76011" transform="rotate(-36.8575 115.211 40.1732)" fill="#2B00B0"/>
<path d="M102.5 46.0731C102.5 46.0731 104.093 48.6541 106 49.0731C107.538 49.4109 110 49.0731 110 49.0731" stroke="#2B00B0" stroke-width="2.25"/>
<path d="M72.875 33.1201C72.875 37.1466 70.2615 39.9951 67.5 39.9951C64.7385 39.9951 62.125 37.1466 62.125 33.1201C62.125 29.0936 64.7385 26.2451 67.5 26.2451C70.2615 26.2451 72.875 29.0936 72.875 33.1201Z" stroke="#2B00B0" stroke-width="2.25"/>
<path d="M71.375 32.5731C71.375 33.3322 71.1535 33.9724 70.8523 34.3941C70.5496 34.818 70.2327 34.9481 70 34.9481C69.7673 34.9481 69.4504 34.818 69.1477 34.3941C68.8465 33.9724 68.625 33.3322 68.625 32.5731C68.625 31.8141 68.8465 31.1738 69.1477 30.7521C69.4504 30.3283 69.7673 30.1981 70 30.1981C70.2327 30.1981 70.5496 30.3283 70.8523 30.7521C71.1535 31.1738 71.375 31.8141 71.375 32.5731Z" fill="#2B00B0" stroke="#2B00B0" stroke-width="2.25"/>
<path d="M116.875 23.1201C116.875 25.1094 116.269 26.867 115.343 28.102C114.417 29.3366 113.223 29.9951 112 29.9951C110.777 29.9951 109.583 29.3366 108.657 28.102C107.731 26.867 107.125 25.1094 107.125 23.1201C107.125 21.1309 107.731 19.3732 108.657 18.1383C109.583 16.9037 110.777 16.2451 112 16.2451C113.223 16.2451 114.417 16.9037 115.343 18.1383C116.269 19.3732 116.875 21.1309 116.875 23.1201Z" stroke="#2B00B0" stroke-width="2.25"/>
<path d="M116.375 21.5731C116.375 22.3322 116.154 22.9724 115.852 23.3941C115.55 23.818 115.233 23.9481 115 23.9481C114.767 23.9481 114.45 23.818 114.148 23.3941C113.846 22.9724 113.625 22.3322 113.625 21.5731C113.625 20.8141 113.846 20.1738 114.148 19.7521C114.45 19.3283 114.767 19.1981 115 19.1981C115.233 19.1981 115.55 19.3283 115.852 19.7521C116.154 20.1738 116.375 20.8141 116.375 21.5731Z" fill="#2B00B0" stroke="#2B00B0" stroke-width="2.25"/>
<path d="M55 46.1202C55 46.1202 61.8563 41.1175 67 40.1202C70.6422 39.4141 76.5 40.1202 76.5 40.1202" stroke="#2B00B0" stroke-width="2.25"/>
<path d="M104 32.1313C104 32.1313 108.474 29.946 111.5 30.1313C113.965 30.2822 117.5 32.1313 117.5 32.1313" stroke="#2B00B0" stroke-width="2.25"/>
<path d="M123.5 109.62C123.5 109.62 107.432 116.631 96.5 117.12C88.443 117.481 76 114.62 76 114.62" stroke="#2B00B0" stroke-width="2.25"/>
<g opacity="0.32">
<path d="M8 140.073C8 140.073 14.3748 125.26 21 117.573C27.5301 109.997 33.9167 109.872 39.5 101.573C48.5787 88.0785 41.881 76.2989 43 60.0731C44 45.5731 44.0885 27.1802 58 22.0731C69.2458 17.9447 75.3904 35.0274 87 32.0731C97.5716 29.383 94.6041 14.0499 105.5 14.5731C111.085 14.8413 114.805 16.3765 118.5 20.5731C122.631 25.2652 120.781 28.9439 123.5 34.5731C127.884 43.65 136.575 44.2781 141.5 53.0731C148.5 65.5731 144.851 77.7944 140.5 91.5731C137.5 101.073 134.028 105.046 133 115.073C132.011 124.717 135 140.073 135 140.073" stroke="#EF8134" stroke-width="2.25"/>
<path d="M142.5 85.5731C142.5 85.5731 101.353 108.322 76.5 99.5731C51.6469 90.8239 56.5 84.12 56.5 84.12C56.5 84.12 66.5168 72.8006 79.5 64.3685M138 48.5731C138 48.5731 128.489 53.0138 122 54.5731C112.869 56.7674 107.184 54.1121 98 56.0731C91.6602 57.4268 85.2856 60.611 79.5 64.3685M79.5 64.3685C79.5 64.3685 90.4973 59.3087 98 57.62C107.163 55.5577 112.867 58.262 122 56.0731C128.483 54.5194 138.5 49.62 138.5 49.62" stroke="#EF8134" stroke-width="2.25"/>
<ellipse cx="108.299" cy="45.1732" rx="1.81962" ry="3.76011" transform="rotate(-36.8575 108.299 45.1732)" fill="#EF8134"/>
<ellipse cx="108.299" cy="45.1732" rx="1.81962" ry="3.76011" transform="rotate(-36.8575 108.299 45.1732)" fill="#EF8134"/>
<ellipse cx="117.211" cy="42.1732" rx="1.81962" ry="3.76011" transform="rotate(-36.8575 117.211 42.1732)" fill="#EF8134"/>
<ellipse cx="117.211" cy="42.1732" rx="1.81962" ry="3.76011" transform="rotate(-36.8575 117.211 42.1732)" fill="#EF8134"/>
<path d="M104.5 48.0731C104.5 48.0731 106.093 50.6541 108 51.0731C109.538 51.4109 112 51.0731 112 51.0731" stroke="#EF8134" stroke-width="2.25"/>
<path d="M74.875 35.1201C74.875 39.1466 72.2615 41.9951 69.5 41.9951C66.7385 41.9951 64.125 39.1466 64.125 35.1201C64.125 31.0936 66.7385 28.2451 69.5 28.2451C72.2615 28.2451 74.875 31.0936 74.875 35.1201Z" stroke="#EF8134" stroke-width="2.25"/>
<path d="M73.375 34.5731C73.375 35.3322 73.1535 35.9724 72.8523 36.3941C72.5496 36.818 72.2327 36.9481 72 36.9481C71.7673 36.9481 71.4504 36.818 71.1477 36.3941C70.8465 35.9724 70.625 35.3322 70.625 34.5731C70.625 33.8141 70.8465 33.1738 71.1477 32.7521C71.4504 32.3283 71.7673 32.1981 72 32.1981C72.2327 32.1981 72.5496 32.3283 72.8523 32.7521C73.1535 33.1738 73.375 33.8141 73.375 34.5731Z" fill="#EF8134" stroke="#EF8134" stroke-width="2.25"/>
<path d="M118.875 25.1201C118.875 27.1094 118.269 28.867 117.343 30.102C116.417 31.3366 115.223 31.9951 114 31.9951C112.777 31.9951 111.583 31.3366 110.657 30.102C109.731 28.867 109.125 27.1094 109.125 25.1201C109.125 23.1309 109.731 21.3732 110.657 20.1383C111.583 18.9037 112.777 18.2451 114 18.2451C115.223 18.2451 116.417 18.9037 117.343 20.1383C118.269 21.3732 118.875 23.1309 118.875 25.1201Z" stroke="#EF8134" stroke-width="2.25"/>
<path d="M118.375 23.5731C118.375 24.3322 118.154 24.9724 117.852 25.3941C117.55 25.818 117.233 25.9481 117 25.9481C116.767 25.9481 116.45 25.818 116.148 25.3941C115.846 24.9724 115.625 24.3322 115.625 23.5731C115.625 22.8141 115.846 22.1738 116.148 21.7521C116.45 21.3283 116.767 21.1981 117 21.1981C117.233 21.1981 117.55 21.3283 117.852 21.7521C118.154 22.1738 118.375 22.8141 118.375 23.5731Z" fill="#EF8134" stroke="#EF8134" stroke-width="2.25"/>
<path d="M57 48.1202C57 48.1202 63.8563 43.1175 69 42.1202C72.6422 41.4141 78.5 42.1202 78.5 42.1202" stroke="#EF8134" stroke-width="2.25"/>
<path d="M106 34.1313C106 34.1313 110.474 31.946 113.5 32.1313C115.965 32.2822 119.5 34.1313 119.5 34.1313" stroke="#EF8134" stroke-width="2.25"/>
<path d="M125.5 111.62C125.5 111.62 109.432 118.631 98.5 119.12C90.443 119.481 78 116.62 78 116.62" stroke="#EF8134" stroke-width="2.25"/>
</g>
</svg>
