<svg width="152" height="152" viewBox="0 0 152 152" fill="none" xmlns="http://www.w3.org/2000/svg">
<path d="M23.0002 140.5C25.0002 135.5 27.0002 125.5 35.0002 117.5C43.0002 109.5 51.0002 102.5 50.0002 101.5C49.0002 100.5 31.0002 99.5 27.0002 104.5C23.0002 109.5 19.0002 117.5 18.0002 117.5C17.0002 117.5 12.0002 118.5 11.0002 111.5C10.0002 104.5 13.0002 98.5 18.0002 94.5C23.0002 90.5 31.0002 89.5 37.0002 88.5C43.0002 87.5 46.0002 85.5 50.0002 84.5" stroke="#2B00B0" stroke-width="2.2372" stroke-miterlimit="10"/>
<path d="M103.5 87C108.5 89 129.5 98 133.5 102C137.5 106 140.5 112 140.5 115C140.5 118 138.5 115 137.5 118C136.5 121 137.5 123 134.5 123C131.3 123 132.5 117 129.5 118C126.5 119 126.5 123 123.5 123C120.5 123 121.5 120 121.5 117C121.5 114 120.5 115 116.5 115C112.5 115 112.5 111 113.5 109C114.5 107 101.5 103 95.5 102" stroke="#2B00B0" stroke-width="2.2372" stroke-miterlimit="10"/>
<path d="M97.5 90C95.5 95 93.5 98 94.5 105C95.5 112 92.5 124 89.5 129C86.5 134 88.5 138 89.5 140" stroke="#2B00B0" stroke-width="2.2372" stroke-miterlimit="10"/>
<path d="M35.5 36C35.5 42 37.5 44 41.5 43C45.5 42 51.5 35 50.5 27C49.5 19 48.5 12 43.5 11C38.5 10 30.5 17 27.5 25C24.5 33 24.1 47 27.5 59C29.5 66 36.5 71 41.5 72" stroke="#2B00B0" stroke-width="2.2372" stroke-miterlimit="10"/>
<path d="M102.5 33C106.5 28 109.5 21 113.5 19C117.5 17 124.5 20 125.5 26C126.5 32 120.5 53 116.5 58" stroke="#2B00B0" stroke-width="2.2372" stroke-miterlimit="10"/>
<path d="M46.9004 13.2C59.5004 24 57.5004 29 60.5004 29C63.5004 29 71.5004 24 82.5004 26C93.5004 28 107.5 34 111.5 41C115.5 48 115.5 59 114.5 65C113.5 71 113.5 77 111.5 80C107.9 85.3 103.5 87 99.5004 84C95.5004 81 95.5004 77 101.5 70" stroke="#2B00B0" stroke-width="2.2372" stroke-miterlimit="10"/>
<path d="M45.3001 40.7C41.5001 47 42.5001 56 41.5001 63C40.5001 70 40.5001 78 48.5001 82C56.5001 86 68.5001 82 70.5001 78C72.5001 74 72.5001 69 69.5001 66" stroke="#2B00B0" stroke-width="2.2372" stroke-miterlimit="10"/>
<path d="M51.5 140C55.5 135 61.5 133 62.5 140" stroke="#2B00B0" stroke-width="2.2372" stroke-miterlimit="10"/>
<path d="M84.5004 71C78.0004 70.5 75.5004 76 77.5004 78C79.5004 80 83.5004 81 86.5004 80C89.5004 79 94.7004 71.8 84.5004 71Z" fill="#2B00B0"/>
<path d="M68.8003 82.4C72.3003 86.6 74.1003 89.6 77.1003 91.2C80.1003 92.8 84.9003 93.4 88.6003 91.3C92.3003 89.3 95.8003 83.7 95.8003 83.7C95.8003 83.7 91.1003 84.9 88.2003 85.1C85.3003 85.3 85.8003 85.3 81.5003 85.5C79.6003 85.6 77.3003 84.8 74.7003 84.2C71.8003 83.5 67.8003 81.2 68.8003 82.4Z" stroke="#2B00B0" stroke-width="2.2372" stroke-miterlimit="10"/>
<path d="M72 65.5C72 61.5 75 60.5 77 60.5C79 60.5 82 61.5 82 64.5C82 67.5 80 68.5 77 68.5C74 68.5 72 67.5 72 65.5Z" stroke="#2B00B0" stroke-width="2.2372" stroke-miterlimit="10"/>
<path d="M89.5004 65C89.8004 61.5 93.5004 60.8 95.5004 61C97.5004 61.2 100.2 62.9 99.9004 65.5C99.7004 68.1 97.6004 68.8 94.6004 68.5C91.6004 68.2 89.3004 66.7 89.5004 65Z" stroke="#2B00B0" stroke-width="2.2372" stroke-miterlimit="10"/>
<path d="M77.3 63.5C75.6 63.5 75 64.7 75 65.8C75 67 77.3 68.1 78.5 67C79.7 65.8 78.5 63.5 77.3 63.5Z" fill="#2B00B0"/>
<path d="M94.0002 67.2C95.5002 67.8 96.6002 67 97.0002 65.9C97.4002 64.8 95.7002 62.9 94.1002 63.5C92.6002 64.2 92.9002 66.8 94.0002 67.2Z" fill="#2B00B0"/>
<path d="M74.0004 100.5C62.8004 106.1 57.3004 119.6 56.0004 123.5C54.0004 129.5 59.0004 133.5 64.0004 133.5C69.0004 133.5 75.0004 130.5 82.0004 123.5C89.0004 116.5 91.0004 104.5 89.0004 102.5C87.0004 100.5 85.0004 105.5 83.0004 105.5C81.0004 105.5 79.0004 103.5 79.0004 101.5C79.0004 99.5 76.0004 99.5 74.0004 100.5Z" stroke="#2B00B0" stroke-width="2.2372" stroke-miterlimit="10"/>
<path d="M60 85.5C63.5 89 66 85.5 68 88.5C70 91.5 72 93.5 78 95.5C84 97.5 92.5 95 97.5 87" stroke="#2B00B0" stroke-width="2.2372" stroke-miterlimit="10"/>
<path d="M66.5 50C68.5 46 73.5 40 76.5 44" stroke="#2B00B0" stroke-width="2.2372" stroke-miterlimit="10"/>
<path d="M68.5 43C68.5 41 72.5 36 76.5 38" stroke="#2B00B0" stroke-width="2.2372" stroke-miterlimit="10"/>
<path d="M93.5 46C96.5 43 98.5 41 100.5 42C102.5 43 104.5 47 104.5 49" stroke="#2B00B0" stroke-width="2.2372" stroke-miterlimit="10"/>
<path d="M95.5 39C99.5 35 103.5 35 104.5 40" stroke="#2B00B0" stroke-width="2.2372" stroke-miterlimit="10"/>
<path d="M24 94.5C27 97.5 28 101.5 25 102.5C22 103.5 20 107.5 19 109.5" stroke="#2B00B0" stroke-width="2.2372" stroke-miterlimit="10"/>
<g opacity="0.32">
<path d="M136.3 103.2C132.1 99 112.1 90.5 107.1 88.4C109.7 87.9 112.3 85.9 114.5 82.6C116.1 80.3 116.5 76.6 117 72.4C117.2 70.7 117.4 68.9 117.7 67.2C118 65.4 118.2 62.7 118.3 59.7L119.5 60.7C123.8 55.3 129.8 34.1 128.7 27.8C128.2 24.7 126.1 22 123.1 20.4C120.4 19 117.3 18.8 115.1 20C112.2 21.4 110 25 107.6 28.7C106.5 30.4 105.4 32.1 104.2 33.7C98.2 30.5 91 28 84.7 26.9C76.7 25.4 70.3 27.5 66.1 28.9C64.6 29.4 63.2 29.8 62.5 29.8C62.1 29.8 61.9 29.7 61.1 28C59.8 25.5 57.4 20.9 49.7 14.3C48.7 13 47.4 12.2 45.8 11.8C40.3 10.7 31.7 18 28.5 26.5C25.2 35.4 25.2 49.6 28.5 61.2C30.4 68 36.9 73.2 42.4 74.8C43.2 78.8 45.3 82.6 50.1 84.9C50.5 85.1 50.9 85.3 51.4 85.4C50 85.8 48.6 86.3 47.3 86.8C45 87.7 42.5 88.6 39 89.2L37.4 89.5C31.5 90.4 24.3 91.6 19.5 95.5C13.8 100.1 11.1 106.6 12.1 113.5C12.8 118.4 15.4 120.8 19.9 120.5C20 120.5 20.1 120.5 20.2 120.5C21.3 120.5 22 119.4 24.6 115.1C26.2 112.6 28.1 109.4 30 107C33.1 103.1 47.1 103.2 50.8 104C49.7 105.6 46 109.1 42.7 112.3C40.8 114.2 38.5 116.3 36.4 118.5C29.8 125.1 27.1 133.1 25.4 138.4C25 139.7 24.6 140.9 24.2 141.9L26.3 142.7C26.7 141.7 27.1 140.5 27.6 139.1C29.4 133.7 31.9 126.3 38.1 120.1C40.3 117.9 42.5 115.8 44.4 113.9C51.3 107.3 53.5 105 53.5 103.5C53.5 103.1 53.4 102.7 53.1 102.5C51.9 101.3 44.6 101.3 41.5 101.4C36.8 101.7 30.8 102.6 28.4 105.5C26.4 108 24.4 111.2 22.8 113.8C21.8 115.5 20.5 117.5 19.9 118.1H19.8C18.3 118.2 15.1 118.4 14.3 113C13.4 106.9 15.8 101.1 20.9 97C25.2 93.5 32.2 92.4 37.8 91.5L39.4 91.2C43.2 90.6 45.8 89.6 48.1 88.7C49.6 88.1 50.9 87.6 52.4 87.2L51.9 85.4C53.9 86.1 56.1 86.4 58.3 86.4C62.5 86.4 66.6 85.3 69.6 83.7C69.6 84 69.6 84.4 70 84.8C70.9 85.9 71.7 86.9 72.4 87.8C74.5 90.5 76.2 92.6 78.6 93.9C80.3 94.8 82.7 95.5 85.2 95.5C87.2 95.5 89.3 95.1 91.2 94.1C95.1 91.9 98.7 86.3 98.8 86.1L99.3 85.3C99.7 85.8 100.2 86.3 100.8 86.7C102.3 87.8 103.9 88.4 105.6 88.4C105.6 88.4 105.6 88.4 105.7 88.4L105.1 89.8C111.5 92.3 131.1 100.9 134.7 104.6C138.5 108.4 141.4 114.2 141.4 116.8C141.4 117 141.4 117.1 141.4 117.2C140.7 117.2 139.2 117.2 138.5 119.5C138.2 120.5 138 121.4 137.9 122.1C137.7 123.7 137.7 123.7 136.5 123.7C135.9 123.7 135.5 123.2 135 121.6C134.5 120.3 133.7 117.9 131.1 118.7C129.3 119.3 128.4 120.7 127.7 121.8C126.9 123 126.4 123.6 125.5 123.6C125.3 123.6 124.9 123.6 124.7 123.4C124.4 123 124.4 121.8 124.5 120.6C124.5 120 124.6 119.3 124.6 118.7C124.6 117.5 124.5 116.6 123.8 116C123.1 115.3 122.1 115.4 120.7 115.5C120.1 115.5 119.3 115.6 118.4 115.6C117.4 115.6 116.7 115.3 116.3 114.7C115.7 113.8 115.9 112.2 116.4 111.2C116.6 110.7 116.6 110.2 116.4 109.7C114.9 106.7 101.6 103.3 97.6 102.6L97.3 104.4C97.1 100.2 98.1 97.7 99.5 94.3C99.8 93.6 100.1 92.9 100.4 92.1L98.8 91.4C99.3 90.7 99.9 90 100.3 89.2L98.4 88C93.6 95.7 85.6 97.8 80.2 96C74.2 94 72.5 92 70.8 89.4C69.5 87.4 67.9 87.5 66.5 87.6C65.2 87.7 64.1 87.7 62.6 86.2L61 87.8C63.2 90 65.1 89.9 66.6 89.8C67.8 89.7 68.3 89.7 68.9 90.6C71.1 93.9 73.4 96 79.5 98C80.9 98.5 82.4 98.7 84 98.7C88.6 98.7 93.7 96.7 97.7 92.4C97.6 92.7 97.5 92.9 97.4 93.2C95.8 97.1 94.3 100.4 95.2 106.6C96.1 113.2 93.3 124.9 90.3 129.9C87 135.4 89.2 139.8 90.3 142L92.3 141C91.3 139.1 89.6 135.5 92.3 131.1C95.5 125.8 98.5 113.6 97.4 106.4C97.3 105.8 97.3 105.2 97.2 104.7C103.4 105.7 112.7 108.9 114.1 110.4C113.5 111.9 113.3 114.1 114.3 115.7C114.9 116.6 116 117.7 118.3 117.7C119.3 117.7 120.1 117.6 120.7 117.6C121.2 117.6 121.8 117.5 122.1 117.6C122.1 117.7 122.2 118 122.2 118.6C122.2 119.2 122.2 119.8 122.1 120.4C122 122.1 121.9 123.8 122.9 124.8C123.5 125.4 124.3 125.7 125.3 125.7C127.5 125.7 128.5 124.1 129.4 122.9C130.1 121.9 130.6 121 131.7 120.7C132.1 120.6 132.2 120.5 132.7 122.2C133.2 123.6 133.9 125.8 136.3 125.8C139.4 125.8 139.7 123.8 139.9 122.3C140 121.6 140.1 120.9 140.4 120.1C140.6 119.4 140.7 119.4 141.2 119.4C142.2 119.4 143.4 119.1 143.4 116.8C143.6 113.5 140.3 107.2 136.3 103.2ZM109.4 29.9C111.6 26.4 113.7 23.2 116 22C117.6 21.2 119.9 21.4 122 22.4C124.4 23.6 126 25.7 126.4 28.2C127.3 33.6 122 52.7 118.2 58.6C118.1 53.3 117.2 47.2 114.5 42.5C112.9 39.7 109.9 37.1 106.1 34.8C107.2 33.2 108.3 31.5 109.4 29.9ZM30.6 60.7C27 48.3 27.9 34.5 30.6 27.4C33.4 20.1 40.9 13.2 45.3 14.1C49.3 14.9 50.4 20.8 51.4 29.1C52.3 36.6 46.6 43 43.2 43.9C41.8 44.3 40.8 44.2 40.1 43.6C39.1 42.8 38.6 40.9 38.6 37.9H36.4C36.4 41.6 37.2 44.1 38.8 45.3C40 46.3 41.7 46.5 43.8 46C44.1 45.9 44.4 45.8 44.7 45.7C43.4 49.6 43.2 53.9 43 58.1C42.9 60.5 42.8 62.7 42.5 64.7C42.2 67.1 41.9 69.7 42.1 72.3C37.4 70.8 32.2 66.3 30.6 60.7ZM70.8 84.4L71.6 83.6L70.8 84.4ZM90.1 92.4C86.8 94.2 82.3 93.7 79.6 92.3C77.6 91.2 76.1 89.4 74.1 86.8C74 86.7 74 86.6 73.9 86.6C74.7 86.9 75.6 87.2 76.4 87.4C77.1 87.6 77.7 87.7 78.3 87.9C80.2 88.4 81.9 88.9 83.5 88.8L90.2 88.4C91.7 88.3 93.6 88 95.1 87.6C93.9 89.1 92 91.3 90.1 92.4ZM102.2 85.1C100.8 84 100 82.9 99.9 81.6C99.7 79.4 101.1 76.5 104.4 72.7L102.7 71.2C99 75.6 97.4 78.9 97.7 81.8C97.8 82.7 98.1 83.5 98.6 84.3L97.7 84.5C97.7 84.5 93 85.7 90.2 85.9L83.6 86.3C82.4 86.4 80.9 86 79.1 85.5C78.5 85.3 77.8 85.2 77.1 85C75.9 84.7 74.4 84.1 73.2 83.6C72.4 83.3 71.8 83 71.3 82.9C72.4 82.1 73.2 81.3 73.7 80.4C75.4 77 75.7 73.2 74.5 70.3C75.6 71.1 77.1 71.6 79.2 71.6C84.3 71.6 85.3 68.8 85.3 66.5C85.3 63.1 82.2 61.4 79.2 61.4C76.4 61.4 73.1 63 73.1 67.5C73.1 67.7 73.1 67.8 73.2 67.9C73 67.6 72.8 67.4 72.6 67.2L71 68.8C73.4 71.2 73.7 75.6 71.8 79.5C71.1 80.9 68.3 82.8 63.8 83.9C58.9 85 54.3 84.7 51 83C43.6 79.3 43.6 71.9 44.6 65.2C44.9 63 45 60.8 45.2 58.4C45.5 53.1 45.8 47.6 48.2 43.5C51.6 40.3 54.4 34.8 53.6 29C53.2 25.8 52.8 22.6 52 19.8C56.4 24.3 58.1 27.4 59 29.3C59.9 31 60.6 32.3 62.4 32.3C63.5 32.3 64.8 31.9 66.7 31.2C70.7 29.9 76.8 27.9 84.2 29.2C95.2 31.2 108.7 37.1 112.4 43.7C116.2 50.4 116.2 61.3 115.3 67C115 68.8 114.8 70.6 114.6 72.3C114.2 76.1 113.7 79.6 112.5 81.5C110.6 84.3 108.5 86 106.4 86.4C105 86.5 103.6 86.1 102.2 85.1ZM79.3 65.5C77.6 65.5 77 66.7 77 67.8C77 68.4 77.7 69.1 78.5 69.3C77.2 69.2 75.1 68.9 75.1 67.4C75.1 63.9 77.8 63.5 79 63.5C79 63.5 82.9 63.5 82.9 66.4C82.9 67.7 82.5 69 80.1 69.2C80.3 69.1 80.4 69 80.6 68.9C81.7 67.8 80.5 65.5 79.3 65.5Z" fill="#EF8134"/>
<path d="M61.9001 136.5C59.2001 135.8 55.6001 137.6 52.6001 141.3L54.3001 142.7C56.6001 139.8 59.4001 138.2 61.2001 138.7C62.6001 139.1 63.1001 140.8 63.3001 142.2L65.5001 141.9C65.1001 138.1 63.3001 136.9 61.9001 136.5Z" fill="#EF8134"/>
<path d="M86.4999 73.0001C79.9999 72.5001 77.4999 78.0001 79.4999 80.0001C81.4999 82.0001 85.4999 83.0001 88.4999 82.0001C91.4999 81.0001 96.6999 73.8001 86.4999 73.0001Z" fill="#EF8134"/>
<path d="M97.5998 61.9C96.1998 61.8 94.5998 62 93.3998 62.6C91.5998 63.5 90.5998 64.9 90.3998 66.9C90.2998 68.2 90.8998 69.3 92.2998 70.2C93.3998 70.9 94.8998 71.4 96.5998 71.6C96.9998 71.6 97.4998 71.7 97.8998 71.7C99.0998 71.7 100.1 71.5 100.9 71.1C101.8 70.6 102.9 69.7 103.1 67.6C103.4 64.2 100.1 62.1 97.5998 61.9ZM100.8 67.4C100.7 68.5 100.2 68.9 99.7998 69.1C99.1998 69.4 98.3998 69.5 97.2998 69.4C98.0998 69.3 98.6998 68.6 98.9998 67.9C99.3998 66.8 97.6998 64.9 96.0998 65.5C94.5998 66.2 94.7998 68.8 95.8998 69.2H95.9998C94.9998 69 94.0998 68.7 93.3998 68.3C92.9998 68.1 92.4998 67.6 92.4998 67C92.5998 65.9 93.1998 65 94.2998 64.5C95.0998 64.1 96.0998 64 96.7998 64C96.9998 64 97.0998 64 97.2998 64C98.6998 64.2 101 65.4 100.8 67.4Z" fill="#EF8134"/>
<path d="M91.8 103.7C91.1 103 90.4 102.9 90 102.9C88.7 102.9 87.7 104 86.7 105C86.2 105.5 85.4 106.4 85 106.4C83.6 106.4 82.1 104.9 82.1 103.5C82.1 102.5 81.7 101.8 80.9 101.3C79.4 100.4 77 100.8 75.5 101.5C63.3 107.6 57.9 122.3 56.9 125.1C56 127.8 56.3 130.5 57.9 132.7C59.6 135.1 62.7 136.6 66 136.6C71.6 136.6 77.9 133.1 84.8 126.3C92 119.1 94.5 106.4 91.8 103.7ZM83.2 124.7C76.8 131.1 71 134.4 66 134.4C63.4 134.4 61 133.3 59.7 131.4C58.6 129.8 58.4 127.9 59 125.8C59.6 124.1 64.8 109.3 76.4 103.4C77.1 103 78 102.9 78.6 102.9C79 102.9 79.4 103 79.6 103.1C79.7 103.2 79.8 103.2 79.8 103.4C79.8 106 82.3 108.5 84.9 108.5C86.2 108.5 87.2 107.4 88.2 106.4C88.7 105.9 89.5 105 89.9 105C89.9 105 90 105 90.1 105.1C91.6 106.7 90 117.9 83.2 124.7Z" fill="#EF8134"/>
<path d="M75.8 43.6C72.2 43.9 68.8 48.9 67.5 51.5L69.5 52.5C71 49.4 74 46 76 45.8C76.4 45.8 77 45.8 77.6 46.7L79.4 45.4C78.2 43.7 76.8 43.5 75.8 43.6Z" fill="#EF8134"/>
<path d="M74.3999 41.3C75.5999 40.5 76.7999 40.4 77.9999 41L78.9999 39C77.1999 38.1 75.1999 38.3 73.2999 39.4C71.1999 40.7 69.3999 43.3 69.3999 45H71.5999C71.5999 44.3 72.6999 42.4 74.3999 41.3Z" fill="#EF8134"/>
<path d="M103 43C100.3 41.6 97.9002 44 94.7002 47.2L96.3002 48.8C99.1002 46 100.8 44.4 102 45C103.5 45.8 105.4 49.3 105.4 51H107.6C107.6 48.5 105.4 44.2 103 43Z" fill="#EF8134"/>
<path d="M103.5 39.3C104.7 39.7 105.2 41.1 105.4 42.2L107.6 41.8C107 38.7 105.4 37.6 104.1 37.2C101.9 36.5 99.3002 37.6 96.7002 40.2L98.3002 41.8C100.2 39.8 102.2 38.9 103.5 39.3Z" fill="#EF8134"/>
<path d="M26.6 103.4C23.2 104.5 21 108.9 20 111L22 112C22.9 110.2 24.8 106.4 27.4 105.6C28.7 105.2 29.6 104.2 29.9 103C30.4 100.9 29.2 98.1 26.9 95.8L25.3 97.4C27 99.1 28 101.3 27.7 102.5C27.6 102.8 27.4 103.2 26.6 103.4Z" fill="#EF8134"/>
</g>
</svg>
