<svg width="152" height="152" viewBox="0 0 152 152" fill="none" xmlns="http://www.w3.org/2000/svg">
<path d="M41.5197 96.4999C42.5198 98.5 42.4999 98.4999 43.4999 99.9999C43.9843 100.727 44.6292 101.719 45.0197 102.5C45.5198 103.5 45.7157 103.809 45.8407 104.809C48.2157 106.309 49.3057 106.551 51.7157 106.809C51.7157 106.809 53.108 105.41 54.5198 104.5C55.4767 103.883 56.4083 103.247 57.5198 103C58.2822 102.831 59.5198 103 59.5198 103C59.5198 103 60.0801 102.334 60.5198 102C61.8017 101.026 62.9368 100.795 64.5198 100.5C66.0674 100.212 68.5197 100.5 68.5197 100.5C70.3809 99.011 72.0197 95.4999 72.0197 95.4999C72.0197 95.4999 70.2481 96.3728 69.0198 96.4999C68.4371 96.5602 67.0198 96.5 67.0198 96.5C67.0198 96.5 66.434 97.3619 66.0198 97.5C65.0936 97.8088 64.0198 97 64.0198 97C64.0198 97 63.6836 97.7657 63.0197 98C62.0991 98.325 61.0198 97.5 61.0198 97.5C61.0198 97.5 60.4959 98.9829 59.5198 99C58.8159 99.0124 58.0198 98.5 58.0198 98.5C58.0198 98.5 57.2049 99.902 56.5198 99.9999C56.2519 100.038 55.5198 99.5 55.5198 99.5C55.5198 99.5 54.6637 100.715 54.0198 101C53.2834 101.325 52.0198 100.5 52.0198 100.5C52.0198 100.5 51.5336 101.298 51.0198 101.5C50.2707 101.795 49.0198 101 49.0198 101C49.0198 101 48.572 102 48.0198 102C47.5198 102 47.0198 101.5 46.5198 101C46.0198 100.5 46.0197 99.5 46.0197 99C46.0198 98.5 46.0198 98.2266 45.6447 98C45.6447 98 43.0198 98 41.5197 96.4999Z" fill="#2B00B0"/>
<path d="M72.0197 95.4999C72.0197 95.4999 71.0197 94.4999 69.7697 93.7499C67.0197 92.4999 65.4761 92.5969 63.0197 92.4999C59.8919 92.3764 58.5296 92.64 55.5197 93.4999C52.0197 94.4999 50.1212 95.4205 46.5197 95.9999C45.7736 96.12 44.8605 96.2217 44.0198 96.3015C42.6776 96.4287 42.8652 96.4138 41.5197 96.4999C43.0198 98 45.6447 98 45.6447 98C46.1817 97.8047 46.5198 97.5 47.0198 97.4999C47.5198 97.4999 48.5198 98 48.5198 98C48.5198 98 48.8157 96.4999 49.5198 96.4999C50.5198 96.4999 51.5198 97.5 51.5198 97.5C51.5198 97.5 51.9947 95.7346 53.0198 95.4999C53.9715 95.2821 55.0198 96.5 55.0198 96.5C55.0198 96.5 55.3845 94.4126 56.5198 94.4999C57.3458 94.5635 58.0198 95 58.0198 95C58.0198 95 58.5198 94 59.5198 94C60.5198 94 61.0198 94.5 61.0198 94.5C61.0198 94.5 62.0991 93.175 63.0197 93.4999C63.6837 93.7342 64.0198 94.5 64.0198 94.5C64.0198 94.5 65.1465 94 66.0198 94C67.0198 94 67.5084 94.712 68.5197 95C69.8476 95.3781 72.0197 95.4999 72.0197 95.4999Z" fill="#2B00B0"/>
<path d="M59.0197 77.9999C59.0197 77.9999 60.8359 77.4041 62.0197 77.4999C64.7859 77.7237 65.5526 80.0424 67.5197 81.9999C69.9841 84.4522 71.7109 85.7792 73.0197 88.9999C74.2781 92.0964 74.4388 94.184 74.0197 97.4999C73.8949 98.4877 73.5197 99.9999 73.5197 99.9999M75.5197 89.9999C75.5197 89.9999 76.3329 93.9385 76.5197 96.4999C76.6902 98.8369 77.0539 100.218 76.5197 102.5C76.0813 104.372 74.5197 107 74.5197 107M36.5197 89.9999C36.5197 89.9999 34.0197 92.8333 34.5197 94.4999C35.0197 96.1666 35.3545 98.0338 36.5197 99.9999C37.7185 102.023 39.3531 103.167 40.5197 104.5C41.6864 105.833 44.4816 107.718 46.0197 110.5C47.2149 112.661 48.0197 116.5 48.0197 116.5M72.0197 95.4999C72.0197 95.4999 70.4307 100.735 68.0197 103.5C65.7064 106.153 64.0197 107 61.0197 108.5C57.3355 110.342 54.0197 110.5 50.5197 109.5C48.5239 108.93 47.4999 108 46.4999 106.5C46.1649 105.998 45.9081 105.409 45.8407 104.809M72.0197 95.4999C72.0197 95.4999 70.3809 99.011 68.5197 100.5M72.0197 95.4999C72.0197 95.4999 71.0197 94.4999 69.7697 93.7499M72.0197 95.4999C72.0197 95.4999 69.8476 95.3781 68.5197 95C67.5084 94.712 67.0198 94 66.0198 94C65.1465 94 64.0198 94.5 64.0198 94.5C64.0198 94.5 63.6837 93.7342 63.0197 93.4999C62.0991 93.175 61.0198 94.5 61.0198 94.5C61.0198 94.5 60.5198 94 59.5198 94C58.5198 94 58.0198 95 58.0198 95C58.0198 95 57.3458 94.5635 56.5198 94.4999C55.3845 94.4126 55.0198 96.5 55.0198 96.5C55.0198 96.5 53.9715 95.2821 53.0198 95.4999C51.9947 95.7346 51.5198 97.5 51.5198 97.5C51.5198 97.5 50.5198 96.4999 49.5198 96.4999C48.8157 96.4999 48.5198 98 48.5198 98C48.5198 98 47.5198 97.4999 47.0198 97.4999C46.5198 97.5 46.1817 97.8047 45.6447 98M72.0197 95.4999C72.0197 95.4999 70.2481 96.3728 69.0198 96.4999C68.4371 96.5602 67.0198 96.5 67.0198 96.5C67.0198 96.5 66.434 97.3619 66.0198 97.5C65.0936 97.8088 64.0198 97 64.0198 97C64.0198 97 63.6836 97.7657 63.0197 98C62.0991 98.325 61.0198 97.5 61.0198 97.5C61.0198 97.5 60.4959 98.9829 59.5198 99C58.8159 99.0124 58.0198 98.5 58.0198 98.5C58.0198 98.5 57.2049 99.902 56.5198 99.9999C56.2519 100.038 55.5198 99.5 55.5198 99.5C55.5198 99.5 54.6637 100.715 54.0198 101C53.2834 101.325 52.0198 100.5 52.0198 100.5C52.0198 100.5 51.5336 101.298 51.0198 101.5C50.2707 101.795 49.0198 101 49.0198 101C49.0198 101 48.572 102 48.0198 102C47.5198 102 47.0198 101.5 46.5198 101C46.0198 100.5 46.0197 99.5 46.0197 99C46.0198 98.5 46.0198 98.2266 45.6447 98M41.5197 96.4999C44.3657 95.1392 46.0204 94.4773 49.0197 93.4999C53.2083 92.1351 55.5197 91.4999 60.0197 90.9999C62.9565 90.6736 64.9535 90.5351 67.5197 91.9999C68.4865 92.5518 68.9969 92.9488 69.7697 93.7499M41.5197 96.4999C42.5198 98.5 42.4999 98.4999 43.4999 99.9999C43.9843 100.727 44.6292 101.719 45.0197 102.5C45.5198 103.5 45.7157 103.809 45.8407 104.809M41.5197 96.4999C42.8652 96.4138 42.6776 96.4287 44.0198 96.3015C44.8605 96.2217 45.7736 96.12 46.5197 95.9999C50.1212 95.4205 52.0197 94.4999 55.5197 93.4999C58.5296 92.64 59.8919 92.3764 63.0197 92.4999C65.4761 92.5969 67.0197 92.4999 69.7697 93.7499M41.5197 96.4999C43.0198 98 45.6447 98 45.6447 98M68.5197 100.5C66.0197 102.5 65.0482 103.26 62.5197 104.5C60.4677 105.506 59.2608 106.052 57.0197 106.5C54.5197 107 53.8602 107.037 51.7157 106.809M68.5197 100.5C68.5197 100.5 66.0674 100.212 64.5198 100.5C62.9368 100.795 61.8017 101.026 60.5198 102C60.0801 102.334 59.5198 103 59.5198 103M51.7157 106.809C49.3057 106.551 48.2157 106.309 45.8407 104.809M51.7157 106.809C51.7157 106.809 53.108 105.41 54.5198 104.5C55.4767 103.883 56.4083 103.247 57.5198 103C58.2822 102.831 59.5198 103 59.5198 103M58.0198 105C58.5198 104 59.5198 103 59.5198 103" stroke="#2B00B0"/>
<path d="M40.119 90.5C40.119 90.5 38.6358 91.5238 38.119 92.5C37.5632 93.5497 37.3883 94.3349 37.619 95.5C37.84 96.6169 38.619 97.5 38.619 97.5" stroke="#2B00B0"/>
<path d="M50.02 66.4999C50.02 66.4999 48.5048 65.2927 48.02 63.9999C47.6087 62.9029 48.02 60.9999 48.02 60.9999M45.02 56.4999C45.02 56.4999 43.9167 54.6831 44.02 53.4999C44.1494 52.0185 46.02 50.5 46.02 50.5M39.52 55C39.52 55 38.8513 53.512 38.02 53C37.3345 52.5778 36.02 52.5 36.02 52.5M43.02 48.5C43.02 48.5 43.7685 47.1231 44.52 46.5C46.0529 45.2289 47.5287 46.5 49.52 46.5C51.5113 46.5 54.52 45.5 54.52 45.5" stroke="#2B00B0"/>
<path d="M42.02 73C42.02 73 41.8859 74.2829 41.52 75C41.018 75.9839 39.52 77 39.52 77" stroke="#2B00B0"/>
<path d="M26.0201 53.5C25.7893 55.5254 26.091 57.1853 27.0199 59C28.0199 55 29.0199 51.3079 29.0199 47.5C29.0199 46.5 29.05 42.8524 31.5199 41C33.5199 39.5 35.8784 42.2085 39.0199 41.5C41.8771 40.8556 44.0199 38.5 45.0201 37.5C48.4831 34.0373 51.7635 33.6649 56.5201 32.5C60.7097 31.4739 61.5199 31.5 65.5199 31.5C71.142 31.5 75.1965 32.3782 79.0199 36.5C81.3953 39.0608 82.9347 41.1799 84.0199 44.5C85.1269 47.8869 85.4272 50.1085 86.5201 53.5C87.806 57.4903 91.1988 61.929 91.5201 63C93.0199 68 93.5199 59 94.0201 57.5C94.9848 54.6065 97.0199 53.5 100.02 52.5C102.02 50.5 102.946 49.1526 105.52 48.5C107.224 48.0681 108.52 48 109.52 48.5C109.52 42.5 110.557 38.2635 108.02 32.5C105.943 27.7816 102.974 26.2245 100.02 22C98.4061 19.6922 98.4246 17.4657 96.0201 16C93.8271 14.6632 92.8668 15.5431 90.5199 14.5C86.0199 12.5 77.5199 8 74.5199 8C70.764 8 67.7614 9.83146 64.0201 9.49995C61.6142 9.28678 60.4352 8.5 58.0199 8.5C54.5199 8.5 50.6068 11.5739 45.5199 13.5C42.3995 14.6816 40.6517 14.9489 38.0199 17.0001C35.7098 18.8006 34.8554 20.7325 32.5199 22.5001C31.6121 23.1872 29.8665 23.2387 29.0199 24.0001C27.3967 25.4599 28.0199 27.5001 27.5201 28.5C26.5322 30.4759 24.2926 30.8078 24.0199 33.0001C23.814 34.6556 25.2806 35.5099 24.876 37.1284C24.376 39.1285 24.5201 40 25.0201 41.0001C25.6375 42.2351 26.0201 43.5001 26.0201 44.5C26.02 45.7349 25.2779 46.2891 25.5201 47.5001C25.7909 48.854 25.725 48.6513 26.0201 50.0001C26.3379 51.4528 26.1884 52.0224 26.0201 53.5Z" fill="#2B00B0"/>
<path d="M31.0199 58.5C29.9477 60.1083 29.7872 60.0401 28.5203 61.5C27.8551 62.4312 27.1678 63.2539 26.6392 64C26.3919 64.349 26.1794 64.6813 26.0201 65C25.5946 65.8514 25.3461 67.0506 26.0201 67.7227C27.8659 66.1356 29.5199 65 30.5199 63.5C31.7602 61.6395 33.0199 61 35.5199 60C37.3055 59.2858 39.6185 58.0784 38.5199 56.5C37.8239 55.5 35.9337 56.3516 34.5199 56.5C32.578 56.7039 32.0199 57 31.0199 58.5Z" fill="#2B00B0"/>
<path d="M70.0199 57.5C68.0199 56.5 65.35 56.9552 62.5199 56C60.2844 55.2455 59.5695 54.6686 57.5199 53.5C55.4494 52.3194 54.3926 51.2256 52.0199 51C50.417 50.8476 48.9518 51.1869 48.0199 52.5C46.7564 54.2803 48.0133 57.36 50.0199 56.5C53.5199 55 54.7359 57.244 57.5199 57.5C59.6588 57.6966 60.872 57.5 63.0199 57.5C65.7536 57.5 72.465 58.7224 70.0199 57.5Z" fill="#2B00B0"/>
<path d="M107.52 79C105.38 80.031 102.02 79 102.02 79C102.02 79 101.885 81.5448 101.864 84.5C101.864 84.5 103.596 84.8879 104.52 85.5C106.093 86.5424 107.233 89.5 107.233 89.5L107.25 89.3517C107.336 88.6115 107.427 87.8354 107.52 87C107.945 83.1707 110.02 77.4561 110.02 77.4561C109.299 78.0336 108.467 78.5437 107.52 79Z" fill="#2B00B0"/>
<path d="M27.0199 59C26.091 57.1853 25.7893 55.5254 26.0201 53.5C26.1884 52.0224 26.3379 51.4528 26.0201 50.0001C25.725 48.6513 25.7909 48.854 25.5201 47.5001C25.2779 46.2891 26.02 45.7349 26.0201 44.5C26.0201 43.5001 25.6375 42.235 25.0201 41.0001C24.5201 40 24.376 39.1285 24.876 37.1284C25.2806 35.5099 23.814 34.6556 24.0199 33.0001C24.2926 30.8078 26.5322 30.4759 27.5201 28.5C28.0199 27.5001 27.3967 25.4599 29.0199 24.0001C29.8665 23.2387 31.6121 23.1872 32.5199 22.5001C34.8554 20.7325 35.7098 18.8006 38.0199 17.0001C40.6517 14.9489 42.3995 14.6816 45.5199 13.5C50.6068 11.5739 54.5199 8.5 58.0199 8.5C60.4352 8.5 61.6142 9.28678 64.0201 9.49995C67.7614 9.83146 70.764 8 74.5199 8C77.5199 8 86.0199 12.5 90.5199 14.5C92.8668 15.5431 93.8271 14.6632 96.0201 16C98.4246 17.4657 98.4061 19.6922 100.02 22C102.974 26.2245 105.943 27.7816 108.02 32.5C110.557 38.2635 109.52 42.5 109.52 48.5M27.0199 59C28.0199 55 29.0199 51.3079 29.0199 47.5C29.0199 46.5 29.05 42.8524 31.5199 41C33.5199 39.5 35.8784 42.2085 39.0199 41.5C41.8771 40.8556 44.0199 38.5 45.0201 37.5C48.4831 34.0373 51.7635 33.6649 56.5201 32.5C60.7097 31.4739 61.5199 31.5 65.5199 31.5C71.142 31.5 75.1965 32.3781 79.0199 36.5C81.3953 39.0608 82.9348 41.1799 84.0199 44.5C85.1269 47.8869 85.4272 50.1085 86.5201 53.5C87.806 57.4903 91.1988 61.929 91.5201 63C93.0199 68 93.5199 59 94.0201 57.5C94.9848 54.6065 97.0199 53.5 100.02 52.5M27.0199 59C27.5199 61 26.6392 64 26.6392 64M109.52 48.5C108.52 48 107.224 48.0681 105.52 48.5C102.946 49.1526 102.02 50.5 100.02 52.5M109.52 48.5C112.52 50.5 115.032 53.7031 114.02 57.5C112.02 65 114.02 67.5 113.52 71C113.116 73.8253 111.977 75.8885 110.02 77.4561M100.02 52.5C99.0199 54 99.5199 57 99.5199 57M102.52 56C102.52 56 103.02 53.5 104.02 52.5C105.2 51.3202 106.394 50.6276 108.02 51C109.775 51.4018 111.02 54.5 111.02 54.5M99.5199 64C99.5199 64 101.661 66.1932 102.02 68C102.408 69.9531 100.046 71.2633 101.02 73C101.425 73.7225 101.784 74.119 102.52 74.5C104.74 75.6499 105.776 72.2922 107.52 70.5C109.072 68.9043 110.25 68.0891 111.02 66C111.897 63.6181 111.02 59.5 111.02 59.5M73.0199 128.5C73.0199 128.5 79.842 126.062 84 124C89.0849 121.478 90.0398 117.015 93.4801 112.5C96.2857 108.818 98.1234 107.42 99.5 103C101.304 97.2087 101.5 96.5 102.02 90C102.152 88.3532 101.851 86.3467 101.864 84.5M110.02 77.4561C109.299 78.0336 108.467 78.5437 107.52 79C105.38 80.031 102.02 79 102.02 79C102.02 79 101.885 81.5448 101.864 84.5M110.02 77.4561C110.02 77.4561 107.945 83.1707 107.52 87C107.427 87.8354 107.336 88.6115 107.25 89.3517M53.5199 128.5C56.0199 129.5 57.1476 129.623 59.5199 129.5C62.8521 129.327 64.7902 128.419 67.5199 126.5C69.8947 124.831 72.5199 121 72.5199 121M53.5199 128.5C55.0199 130.5 55.5199 133 56.5199 135.5C57.9054 138.964 61.0199 142.5 61.0199 142.5M53.5199 128.5C52.5199 128 52.5199 128 51.5199 127.5M77.5199 83C79.0199 85 80.0873 87.2555 80.5199 90.5C81.2243 95.7829 80.0199 100.5 79.0199 104.5C78.0199 108.5 75.0199 115 75.0199 115M51.5199 121C51.5199 121 54.3614 123.174 56.5199 123.5C59.0957 123.89 60.8764 123.481 63.0199 122C64.5011 120.977 66.0199 118.5 66.0199 118.5M51.5199 127.5C49.6605 126.677 48.2751 125.388 47.5199 123.5C46.5199 121 47.1973 118.737 45.5199 116.5C38.0199 106.5 33.0199 100.5 29.5199 91.5C28.456 88.7642 28.4449 86.4345 28.5199 83.5C28.6003 80.3525 29.9635 78.6171 29.5199 75.5C29.0506 72.2026 26.0201 70.5 26.0201 67.7227M51.5199 127.5C51.1294 129.518 51.4639 130.174 50.5199 132C49.5052 133.962 47.9952 134.518 47.0199 136.5C45.8959 138.784 46.0199 142.5 46.0199 142.5M110.875 121C109.02 118 108.22 115.999 107.52 112.5C106.52 107.5 106.447 104.304 106.52 99C106.572 95.2131 106.862 92.6768 107.233 89.5M110.875 121C112.494 125.101 114.207 127.167 115.02 131.5C115.812 135.722 114.02 142.5 114.02 142.5C114.02 142.5 115.52 140.5 117.02 138C118.52 135.5 118.42 129.3 118.02 128.5M110.875 121C112.884 121.976 115.52 122.167 116.02 123.5C116.52 124.833 117.62 127.7 118.02 128.5M118.02 128.5C120.168 130.062 122.02 131 123.52 132.5C125.064 134.044 125.546 135.369 126.02 137.5C126.443 139.406 125.52 142.5 125.52 142.5M26.0201 67.7227C25.3461 67.0506 25.5946 65.8514 26.0201 65C26.1794 64.6813 26.3919 64.349 26.6392 64M26.0201 67.7227C27.8659 66.1356 29.5199 65 30.5199 63.5C31.7602 61.6395 33.0199 61 35.5199 60C37.3055 59.2858 39.6185 58.0785 38.5199 56.5C37.8239 55.5 35.9337 56.3516 34.5199 56.5C32.578 56.7039 32.0199 57 31.0199 58.5C29.9477 60.1083 29.7872 60.0401 28.5203 61.5C27.8551 62.4312 27.1678 63.2539 26.6392 64M101.864 84.5C101.864 84.5 103.596 84.8879 104.52 85.5C106.093 86.5424 107.233 89.5 107.233 89.5M107.233 89.5L107.25 89.3517M107.233 89.5C107.239 89.4507 107.244 89.4013 107.25 89.3517M70.0199 57.5C68.0199 56.5 65.35 56.9552 62.5199 56C60.2844 55.2455 59.5695 54.6686 57.5199 53.5C55.4494 52.3194 54.3926 51.2256 52.0199 51C50.417 50.8476 48.9518 51.1869 48.0199 52.5C46.7564 54.2803 48.0133 57.36 50.0199 56.5C53.5199 55 54.7359 57.244 57.5199 57.5C59.6588 57.6966 60.872 57.5 63.0199 57.5C65.7536 57.5 72.465 58.7224 70.0199 57.5Z" stroke="#2B00B0"/>
<path d="M53.52 66.5C53.52 66.5 55.3361 64.7104 56.52 64C57.579 63.3646 58.3027 63.2078 59.52 63C60.8674 62.77 61.6576 62.8904 63.02 63C65.0049 63.1597 66.02 64 68.02 65C67.02 64.5 65.9167 64.5708 65.02 64.5C63.855 64.4081 62.52 64.5 61.02 64.5C59.52 64.5 58.8513 64.6337 57.52 65C56.0862 65.3945 53.52 66.5 53.52 66.5Z" fill="#2B00B0"/>
<path d="M50.003 88.5085C50.0087 88.5057 50.0143 88.5028 50.02 88.5L52.02 87.5C52.5605 87.3199 53.8458 86.2975 53.8458 86.2975C51.3299 86.2252 48.52 85.7131 48.52 87.5C48.52 89.1747 49.8375 88.5887 50.003 88.5085Z" fill="#2B00B0"/>
<path d="M35.52 64.5C35.52 64.5 39.2835 64.6068 41.02 66C42.4568 67.1528 42.9517 68.2478 43.52 70C44.2429 72.2289 44.3839 73.1853 44.02 75.5C43.7034 77.5139 42.9317 78.6766 42.02 80.5C41.52 81.5 40.5904 82.9273 40.52 84.5C40.4648 85.7337 41.02 86.5 41.52 87C42.52 88 43.52 88.3 44.52 88.5C47.0129 88.9986 48.0143 89.4972 50.003 88.5085M50.02 88.5L52.02 87.5C52.5605 87.3199 53.8458 86.2975 53.8458 86.2975M50.02 88.5C50.0143 88.5028 50.0087 88.5057 50.003 88.5085M50.02 88.5C50.02 88.5 50.0141 88.5031 50.003 88.5085M56.02 80.5C56.02 80.5 56.4858 80.2596 57.02 80.5C58.1311 81 58.52 82 58.52 83.5C58.52 84.7503 58.02 86.5 56.52 86C55.5713 85.6838 54.8498 86.3264 53.8458 86.2975M53.8458 86.2975C51.3299 86.2252 48.52 85.7131 48.52 87.5C48.52 89.1747 49.8375 88.5887 50.003 88.5085M52.52 68.5C52.52 68.5 55.1221 70.1899 57.02 70.5C58.9567 70.8164 60.2128 70.7647 62.02 70C63.9316 69.1912 65.02 68.5 66.02 66.5M68.02 65C69.52 64.5 70.1097 64.1781 71.52 64C72.6824 63.8532 74.02 64 74.02 64M68.02 65C68.6058 64.0237 69.52 62.5 70.52 62C71.261 61.6295 72.52 61.5 72.52 61.5M68.02 65C66.02 64 65.0049 63.1597 63.02 63C61.6576 62.8904 60.8674 62.77 59.52 63C58.3027 63.2078 57.579 63.3646 56.52 64C55.3361 64.7104 53.52 66.5 53.52 66.5C53.52 66.5 56.0862 65.3945 57.52 65C58.8513 64.6337 59.52 64.5 61.02 64.5C62.52 64.5 63.855 64.4081 65.02 64.5C65.9167 64.5708 67.02 64.5 68.02 65Z" stroke="#2B00B0"/>
<path d="M41.02 70.4999C41.02 70.4999 38.9836 69.2634 37.52 68.9999C36.367 68.7924 35.6503 68.6917 34.52 68.9999C33.1616 69.3704 32.4672 69.958 31.52 70.9999C30.7541 71.8424 30.02 73.4999 30.02 73.4999C30.02 73.4999 31.6733 71.7155 33.02 70.9999C34.1106 70.4205 34.8008 70.1963 36.02 69.9999C37.9574 69.6879 41.02 70.4999 41.02 70.4999Z" fill="#2B00B0"/>
<path d="M40.52 72.4999C40.52 72.4999 38.9095 74.3713 37.52 74.9999C35.9091 75.7288 34.7723 75.7367 33.02 75.4999C32.2222 75.3921 31.02 74.9999 31.02 74.9999M41.02 70.4999C41.02 70.4999 38.9836 69.2634 37.52 68.9999C36.367 68.7924 35.6503 68.6917 34.52 68.9999C33.1616 69.3704 32.4672 69.958 31.52 70.9999C30.7541 71.8424 30.02 73.4999 30.02 73.4999C30.02 73.4999 31.6733 71.7155 33.02 70.9999C34.1106 70.4205 34.8008 70.1963 36.02 69.9999C37.9574 69.6879 41.02 70.4999 41.02 70.4999Z" stroke="#2B00B0"/>
<circle cx="84.02" cy="80" r="0.5" fill="#2B00B0"/>
<g opacity="0.32">
<path d="M43.5197 98.4999C44.5198 100.5 44.4999 100.5 45.4999 102C45.9843 102.727 46.6292 103.719 47.0197 104.5C47.5198 105.5 47.7157 105.809 47.8407 106.809C50.2157 108.309 51.3057 108.551 53.7157 108.809C53.7157 108.809 55.108 107.41 56.5198 106.5C57.4767 105.883 58.4083 105.247 59.5198 105C60.2822 104.831 61.5198 105 61.5198 105C61.5198 105 62.0801 104.334 62.5198 104C63.8017 103.026 64.9368 102.795 66.5198 102.5C68.0674 102.212 70.5197 102.5 70.5197 102.5C72.3809 101.011 74.0197 97.4999 74.0197 97.4999C74.0197 97.4999 72.2481 98.3728 71.0198 98.4999C70.4371 98.5602 69.0198 98.5 69.0198 98.5C69.0198 98.5 68.434 99.3619 68.0198 99.5C67.0936 99.8088 66.0198 99 66.0198 99C66.0198 99 65.6836 99.7657 65.0197 100C64.0991 100.325 63.0198 99.5 63.0198 99.5C63.0198 99.5 62.4959 100.983 61.5198 101C60.8159 101.012 60.0198 100.5 60.0198 100.5C60.0198 100.5 59.2049 101.902 58.5198 102C58.2519 102.038 57.5198 101.5 57.5198 101.5C57.5198 101.5 56.6637 102.715 56.0198 103C55.2834 103.325 54.0198 102.5 54.0198 102.5C54.0198 102.5 53.5336 103.298 53.0198 103.5C52.2707 103.795 51.0198 103 51.0198 103C51.0198 103 50.572 104 50.0198 104C49.5198 104 49.0198 103.5 48.5198 103C48.0198 102.5 48.0197 101.5 48.0197 101C48.0198 100.5 48.0198 100.227 47.6447 100C47.6447 100 45.0198 100 43.5197 98.4999Z" fill="#EF8134"/>
<path d="M74.0197 97.4999C74.0197 97.4999 73.0197 96.4999 71.7697 95.7499C69.0197 94.4999 67.4761 94.5969 65.0197 94.4999C61.8919 94.3764 60.5296 94.64 57.5197 95.4999C54.0197 96.4999 52.1212 97.4205 48.5197 97.9999C47.7736 98.12 46.8605 98.2217 46.0198 98.3015C44.6776 98.4287 44.8652 98.4138 43.5197 98.4999C45.0198 100 47.6447 100 47.6447 100C48.1817 99.8047 48.5198 99.5 49.0198 99.4999C49.5198 99.4999 50.5198 100 50.5198 100C50.5198 100 50.8157 98.4999 51.5198 98.4999C52.5198 98.4999 53.5198 99.5 53.5198 99.5C53.5198 99.5 53.9947 97.7346 55.0198 97.4999C55.9715 97.2821 57.0198 98.5 57.0198 98.5C57.0198 98.5 57.3845 96.4126 58.5198 96.4999C59.3458 96.5635 60.0198 97 60.0198 97C60.0198 97 60.5198 96 61.5198 96C62.5198 96 63.0198 96.5 63.0198 96.5C63.0198 96.5 64.0991 95.175 65.0197 95.4999C65.6837 95.7342 66.0198 96.5 66.0198 96.5C66.0198 96.5 67.1465 96 68.0198 96C69.0198 96 69.5084 96.712 70.5197 97C71.8476 97.3781 74.0197 97.4999 74.0197 97.4999Z" fill="#EF8134"/>
<path d="M61.0197 79.9999C61.0197 79.9999 62.8359 79.4041 64.0197 79.4999C66.7859 79.7237 67.5526 82.0424 69.5197 83.9999C71.9841 86.4522 73.7109 87.7792 75.0197 90.9999C76.2781 94.0964 76.4388 96.184 76.0197 99.4999C75.8949 100.488 75.5197 102 75.5197 102M77.5197 91.9999C77.5197 91.9999 78.3329 95.9385 78.5197 98.4999C78.6902 100.837 79.0539 102.218 78.5197 104.5C78.0813 106.372 76.5197 109 76.5197 109M38.5197 91.9999C38.5197 91.9999 36.0197 94.8333 36.5197 96.4999C37.0197 98.1666 37.3545 100.034 38.5197 102C39.7185 104.023 41.3531 105.167 42.5197 106.5C43.6864 107.833 46.4816 109.718 48.0197 112.5C49.2149 114.661 50.0197 118.5 50.0197 118.5M74.0197 97.4999C74.0197 97.4999 72.4307 102.735 70.0197 105.5C67.7064 108.153 66.0197 109 63.0197 110.5C59.3355 112.342 56.0197 112.5 52.5197 111.5C50.5239 110.93 49.4999 110 48.4999 108.5C48.1649 107.998 47.9081 107.409 47.8407 106.809M74.0197 97.4999C74.0197 97.4999 72.3809 101.011 70.5197 102.5M74.0197 97.4999C74.0197 97.4999 73.0197 96.4999 71.7697 95.7499M74.0197 97.4999C74.0197 97.4999 71.8476 97.3781 70.5197 97C69.5084 96.712 69.0198 96 68.0198 96C67.1465 96 66.0198 96.5 66.0198 96.5C66.0198 96.5 65.6837 95.7342 65.0197 95.4999C64.0991 95.175 63.0198 96.5 63.0198 96.5C63.0198 96.5 62.5198 96 61.5198 96C60.5198 96 60.0198 97 60.0198 97C60.0198 97 59.3458 96.5635 58.5198 96.4999C57.3845 96.4126 57.0198 98.5 57.0198 98.5C57.0198 98.5 55.9715 97.2821 55.0198 97.4999C53.9947 97.7346 53.5198 99.5 53.5198 99.5C53.5198 99.5 52.5198 98.4999 51.5198 98.4999C50.8157 98.4999 50.5198 100 50.5198 100C50.5198 100 49.5198 99.4999 49.0198 99.4999C48.5198 99.5 48.1817 99.8047 47.6447 100M74.0197 97.4999C74.0197 97.4999 72.2481 98.3728 71.0198 98.4999C70.4371 98.5602 69.0198 98.5 69.0198 98.5C69.0198 98.5 68.434 99.3619 68.0198 99.5C67.0936 99.8088 66.0198 99 66.0198 99C66.0198 99 65.6836 99.7657 65.0197 100C64.0991 100.325 63.0198 99.5 63.0198 99.5C63.0198 99.5 62.4959 100.983 61.5198 101C60.8159 101.012 60.0198 100.5 60.0198 100.5C60.0198 100.5 59.2049 101.902 58.5198 102C58.2519 102.038 57.5198 101.5 57.5198 101.5C57.5198 101.5 56.6637 102.715 56.0198 103C55.2834 103.325 54.0198 102.5 54.0198 102.5C54.0198 102.5 53.5336 103.298 53.0198 103.5C52.2707 103.795 51.0198 103 51.0198 103C51.0198 103 50.572 104 50.0198 104C49.5198 104 49.0198 103.5 48.5198 103C48.0198 102.5 48.0197 101.5 48.0197 101C48.0198 100.5 48.0198 100.227 47.6447 100M43.5197 98.4999C46.3657 97.1392 48.0204 96.4773 51.0197 95.4999C55.2083 94.1351 57.5197 93.4999 62.0197 92.9999C64.9565 92.6736 66.9535 92.5351 69.5197 93.9999C70.4865 94.5518 70.9969 94.9488 71.7697 95.7499M43.5197 98.4999C44.5198 100.5 44.4999 100.5 45.4999 102C45.9843 102.727 46.6292 103.719 47.0197 104.5C47.5198 105.5 47.7157 105.809 47.8407 106.809M43.5197 98.4999C44.8652 98.4138 44.6776 98.4287 46.0198 98.3015C46.8605 98.2217 47.7736 98.12 48.5197 97.9999C52.1212 97.4205 54.0197 96.4999 57.5197 95.4999C60.5296 94.64 61.8919 94.3764 65.0197 94.4999C67.4761 94.5969 69.0197 94.4999 71.7697 95.7499M43.5197 98.4999C45.0198 100 47.6447 100 47.6447 100M70.5197 102.5C68.0197 104.5 67.0482 105.26 64.5197 106.5C62.4677 107.506 61.2608 108.052 59.0197 108.5C56.5197 109 55.8602 109.037 53.7157 108.809M70.5197 102.5C70.5197 102.5 68.0674 102.212 66.5198 102.5C64.9368 102.795 63.8017 103.026 62.5198 104C62.0801 104.334 61.5198 105 61.5198 105M53.7157 108.809C51.3057 108.551 50.2157 108.309 47.8407 106.809M53.7157 108.809C53.7157 108.809 55.108 107.41 56.5198 106.5C57.4767 105.883 58.4083 105.247 59.5198 105C60.2822 104.831 61.5198 105 61.5198 105M60.0198 107C60.5198 106 61.5198 105 61.5198 105" stroke="#EF8134"/>
<path d="M42.119 92.5C42.119 92.5 40.6358 93.5238 40.119 94.5C39.5632 95.5497 39.3883 96.3349 39.619 97.5C39.84 98.6169 40.619 99.5 40.619 99.5" stroke="#EF8134"/>
<path d="M52.02 68.4999C52.02 68.4999 50.5048 67.2927 50.02 65.9999C49.6087 64.9029 50.02 62.9999 50.02 62.9999M47.02 58.4999C47.02 58.4999 45.9167 56.6831 46.02 55.4999C46.1494 54.0185 48.02 52.5 48.02 52.5M41.52 57C41.52 57 40.8513 55.512 40.02 55C39.3345 54.5778 38.02 54.5 38.02 54.5M45.02 50.5C45.02 50.5 45.7685 49.1231 46.52 48.5C48.0529 47.2289 49.5287 48.5 51.52 48.5C53.5113 48.5 56.52 47.5 56.52 47.5" stroke="#EF8134"/>
<path d="M44.02 75C44.02 75 43.8859 76.2829 43.52 77C43.018 77.9839 41.52 79 41.52 79" stroke="#EF8134"/>
<path d="M28.0201 55.5C27.7893 57.5254 28.091 59.1853 29.0199 61C30.0199 57 31.0199 53.3079 31.0199 49.5C31.0199 48.5 31.05 44.8524 33.5199 43C35.5199 41.5 37.8784 44.2085 41.0199 43.5C43.8771 42.8556 46.0199 40.5 47.0201 39.5C50.4831 36.0373 53.7635 35.6649 58.5201 34.5C62.7097 33.4739 63.5199 33.5 67.5199 33.5C73.142 33.5 77.1965 34.3782 81.0199 38.5C83.3953 41.0608 84.9347 43.1799 86.0199 46.5C87.1269 49.8869 87.4272 52.1085 88.5201 55.5C89.806 59.4903 93.1988 63.929 93.5201 65C95.0199 70 95.5199 61 96.0201 59.5C96.9848 56.6065 99.0199 55.5 102.02 54.5C104.02 52.5 104.946 51.1526 107.52 50.5C109.224 50.0681 110.52 50 111.52 50.5C111.52 44.5 112.557 40.2635 110.02 34.5C107.943 29.7816 104.974 28.2245 102.02 24C100.406 21.6922 100.425 19.4657 98.0201 18C95.8271 16.6632 94.8668 17.5431 92.5199 16.5C88.0199 14.5 79.5199 10 76.5199 10C72.764 10 69.7614 11.8315 66.0201 11.5C63.6142 11.2868 62.4352 10.5 60.0199 10.5C56.5199 10.5 52.6068 13.5739 47.5199 15.5C44.3995 16.6816 42.6517 16.9489 40.0199 19.0001C37.7098 20.8006 36.8554 22.7325 34.5199 24.5001C33.6121 25.1872 31.8665 25.2387 31.0199 26.0001C29.3967 27.4599 30.0199 29.5001 29.5201 30.5C28.5322 32.4759 26.2926 32.8078 26.0199 35.0001C25.814 36.6556 27.2806 37.5099 26.876 39.1284C26.376 41.1285 26.5201 42 27.0201 43.0001C27.6375 44.2351 28.0201 45.5001 28.0201 46.5C28.02 47.7349 27.2779 48.2891 27.5201 49.5001C27.7909 50.854 27.725 50.6513 28.0201 52.0001C28.3379 53.4528 28.1884 54.0224 28.0201 55.5Z" fill="#EF8134"/>
<path d="M33.0199 60.5C31.9477 62.1083 31.7872 62.0401 30.5203 63.5C29.8551 64.4312 29.1678 65.2539 28.6392 66C28.3919 66.349 28.1794 66.6813 28.0201 67C27.5946 67.8514 27.3461 69.0506 28.0201 69.7227C29.8659 68.1356 31.5199 67 32.5199 65.5C33.7602 63.6395 35.0199 63 37.5199 62C39.3055 61.2858 41.6185 60.0784 40.5199 58.5C39.8239 57.5 37.9337 58.3516 36.5199 58.5C34.578 58.7039 34.0199 59 33.0199 60.5Z" fill="#EF8134"/>
<path d="M72.0199 59.5C70.0199 58.5 67.35 58.9552 64.5199 58C62.2844 57.2455 61.5695 56.6686 59.5199 55.5C57.4494 54.3194 56.3926 53.2256 54.0199 53C52.417 52.8476 50.9518 53.1869 50.0199 54.5C48.7564 56.2803 50.0133 59.36 52.0199 58.5C55.5199 57 56.7359 59.244 59.5199 59.5C61.6588 59.6966 62.872 59.5 65.0199 59.5C67.7536 59.5 74.465 60.7224 72.0199 59.5Z" fill="#EF8134"/>
<path d="M109.52 81C107.38 82.031 104.02 81 104.02 81C104.02 81 103.885 83.5448 103.864 86.5C103.864 86.5 105.596 86.8879 106.52 87.5C108.093 88.5424 109.233 91.5 109.233 91.5L109.25 91.3517C109.336 90.6115 109.427 89.8354 109.52 89C109.945 85.1707 112.02 79.4561 112.02 79.4561C111.299 80.0336 110.467 80.5437 109.52 81Z" fill="#EF8134"/>
<path d="M29.0199 61C28.091 59.1853 27.7893 57.5254 28.0201 55.5C28.1884 54.0224 28.3379 53.4528 28.0201 52.0001C27.725 50.6513 27.7909 50.854 27.5201 49.5001C27.2779 48.2891 28.02 47.7349 28.0201 46.5C28.0201 45.5001 27.6375 44.235 27.0201 43.0001C26.5201 42 26.376 41.1285 26.876 39.1284C27.2806 37.5099 25.814 36.6556 26.0199 35.0001C26.2926 32.8078 28.5322 32.4759 29.5201 30.5C30.0199 29.5001 29.3967 27.4599 31.0199 26.0001C31.8665 25.2387 33.6121 25.1872 34.5199 24.5001C36.8554 22.7325 37.7098 20.8006 40.0199 19.0001C42.6517 16.9489 44.3995 16.6816 47.5199 15.5C52.6068 13.5739 56.5199 10.5 60.0199 10.5C62.4352 10.5 63.6142 11.2868 66.0201 11.5C69.7614 11.8315 72.764 10 76.5199 10C79.5199 10 88.0199 14.5 92.5199 16.5C94.8668 17.5431 95.8271 16.6632 98.0201 18C100.425 19.4657 100.406 21.6922 102.02 24C104.974 28.2245 107.943 29.7816 110.02 34.5C112.557 40.2635 111.52 44.5 111.52 50.5M29.0199 61C30.0199 57 31.0199 53.3079 31.0199 49.5C31.0199 48.5 31.05 44.8524 33.5199 43C35.5199 41.5 37.8784 44.2085 41.0199 43.5C43.8771 42.8556 46.0199 40.5 47.0201 39.5C50.4831 36.0373 53.7635 35.6649 58.5201 34.5C62.7097 33.4739 63.5199 33.5 67.5199 33.5C73.142 33.5 77.1965 34.3781 81.0199 38.5C83.3953 41.0608 84.9348 43.1799 86.0199 46.5C87.1269 49.8869 87.4272 52.1085 88.5201 55.5C89.806 59.4903 93.1988 63.929 93.5201 65C95.0199 70 95.5199 61 96.0201 59.5C96.9848 56.6065 99.0199 55.5 102.02 54.5M29.0199 61C29.5199 63 28.6392 66 28.6392 66M111.52 50.5C110.52 50 109.224 50.0681 107.52 50.5C104.946 51.1526 104.02 52.5 102.02 54.5M111.52 50.5C114.52 52.5 117.032 55.7031 116.02 59.5C114.02 67 116.02 69.5 115.52 73C115.116 75.8253 113.977 77.8885 112.02 79.4561M102.02 54.5C101.02 56 101.52 59 101.52 59M104.52 58C104.52 58 105.02 55.5 106.02 54.5C107.2 53.3202 108.394 52.6276 110.02 53C111.775 53.4018 113.02 56.5 113.02 56.5M101.52 66C101.52 66 103.661 68.1932 104.02 70C104.408 71.9531 102.046 73.2633 103.02 75C103.425 75.7225 103.784 76.119 104.52 76.5C106.74 77.6499 107.776 74.2922 109.52 72.5C111.072 70.9043 112.25 70.0891 113.02 68C113.897 65.6181 113.02 61.5 113.02 61.5M75.0199 130.5C75.0199 130.5 81.842 128.062 86 126C91.0849 123.478 92.0398 119.015 95.4801 114.5C98.2857 110.818 100.123 109.42 101.5 105C103.304 99.2087 103.5 98.5 104.02 92C104.152 90.3532 103.851 88.3467 103.864 86.5M112.02 79.4561C111.299 80.0336 110.467 80.5437 109.52 81C107.38 82.031 104.02 81 104.02 81C104.02 81 103.885 83.5448 103.864 86.5M112.02 79.4561C112.02 79.4561 109.945 85.1707 109.52 89C109.427 89.8354 109.336 90.6115 109.25 91.3517M55.5199 130.5C58.0199 131.5 59.1476 131.623 61.5199 131.5C64.8521 131.327 66.7902 130.419 69.5199 128.5C71.8947 126.831 74.5199 123 74.5199 123M55.5199 130.5C57.0199 132.5 57.5199 135 58.5199 137.5C59.9054 140.964 63.0199 144.5 63.0199 144.5M55.5199 130.5C54.5199 130 54.5199 130 53.5199 129.5M79.5199 85C81.0199 87 82.0873 89.2555 82.5199 92.5C83.2243 97.7829 82.0199 102.5 81.0199 106.5C80.0199 110.5 77.0199 117 77.0199 117M53.5199 123C53.5199 123 56.3614 125.174 58.5199 125.5C61.0957 125.89 62.8764 125.481 65.0199 124C66.5011 122.977 68.0199 120.5 68.0199 120.5M53.5199 129.5C51.6605 128.677 50.2751 127.388 49.5199 125.5C48.5199 123 49.1973 120.737 47.5199 118.5C40.0199 108.5 35.0199 102.5 31.5199 93.5C30.456 90.7642 30.4449 88.4345 30.5199 85.5C30.6003 82.3525 31.9635 80.6171 31.5199 77.5C31.0506 74.2026 28.0201 72.5 28.0201 69.7227M53.5199 129.5C53.1294 131.518 53.4639 132.174 52.5199 134C51.5052 135.962 49.9952 136.518 49.0199 138.5C47.8959 140.784 48.0199 144.5 48.0199 144.5M112.875 123C111.02 120 110.22 117.999 109.52 114.5C108.52 109.5 108.447 106.304 108.52 101C108.572 97.2131 108.862 94.6768 109.233 91.5M112.875 123C114.494 127.101 116.207 129.167 117.02 133.5C117.812 137.722 116.02 144.5 116.02 144.5C116.02 144.5 117.52 142.5 119.02 140C120.52 137.5 120.42 131.3 120.02 130.5M112.875 123C114.884 123.976 117.52 124.167 118.02 125.5C118.52 126.833 119.62 129.7 120.02 130.5M120.02 130.5C122.168 132.062 124.02 133 125.52 134.5C127.064 136.044 127.546 137.369 128.02 139.5C128.443 141.406 127.52 144.5 127.52 144.5M28.0201 69.7227C27.3461 69.0506 27.5946 67.8514 28.0201 67C28.1794 66.6813 28.3919 66.349 28.6392 66M28.0201 69.7227C29.8659 68.1356 31.5199 67 32.5199 65.5C33.7602 63.6395 35.0199 63 37.5199 62C39.3055 61.2858 41.6185 60.0785 40.5199 58.5C39.8239 57.5 37.9337 58.3516 36.5199 58.5C34.578 58.7039 34.0199 59 33.0199 60.5C31.9477 62.1083 31.7872 62.0401 30.5203 63.5C29.8551 64.4312 29.1678 65.2539 28.6392 66M103.864 86.5C103.864 86.5 105.596 86.8879 106.52 87.5C108.093 88.5424 109.233 91.5 109.233 91.5M109.233 91.5L109.25 91.3517M109.233 91.5C109.239 91.4507 109.244 91.4013 109.25 91.3517M72.0199 59.5C70.0199 58.5 67.35 58.9552 64.5199 58C62.2844 57.2455 61.5695 56.6686 59.5199 55.5C57.4494 54.3194 56.3926 53.2256 54.0199 53C52.417 52.8476 50.9518 53.1869 50.0199 54.5C48.7564 56.2803 50.0133 59.36 52.0199 58.5C55.5199 57 56.7359 59.244 59.5199 59.5C61.6588 59.6966 62.872 59.5 65.0199 59.5C67.7536 59.5 74.465 60.7224 72.0199 59.5Z" stroke="#EF8134"/>
<path d="M55.52 68.5C55.52 68.5 57.3361 66.7104 58.52 66C59.579 65.3646 60.3027 65.2078 61.52 65C62.8674 64.77 63.6576 64.8904 65.02 65C67.0049 65.1597 68.02 66 70.02 67C69.02 66.5 67.9167 66.5708 67.02 66.5C65.855 66.4081 64.52 66.5 63.02 66.5C61.52 66.5 60.8513 66.6337 59.52 67C58.0862 67.3945 55.52 68.5 55.52 68.5Z" fill="#EF8134"/>
<path d="M52.003 90.5085C52.0087 90.5057 52.0143 90.5028 52.02 90.5L54.02 89.5C54.5605 89.3199 55.8458 88.2975 55.8458 88.2975C53.3299 88.2252 50.52 87.7131 50.52 89.5C50.52 91.1747 51.8375 90.5887 52.003 90.5085Z" fill="#EF8134"/>
<path d="M37.52 66.5C37.52 66.5 41.2835 66.6068 43.02 68C44.4568 69.1528 44.9517 70.2478 45.52 72C46.2429 74.2289 46.3839 75.1853 46.02 77.5C45.7034 79.5139 44.9317 80.6766 44.02 82.5C43.52 83.5 42.5904 84.9273 42.52 86.5C42.4648 87.7337 43.02 88.5 43.52 89C44.52 90 45.52 90.3 46.52 90.5C49.0129 90.9986 50.0143 91.4972 52.003 90.5085M52.02 90.5L54.02 89.5C54.5605 89.3199 55.8458 88.2975 55.8458 88.2975M52.02 90.5C52.0143 90.5028 52.0087 90.5057 52.003 90.5085M52.02 90.5C52.02 90.5 52.0141 90.5031 52.003 90.5085M58.02 82.5C58.02 82.5 58.4858 82.2596 59.02 82.5C60.1311 83 60.52 84 60.52 85.5C60.52 86.7503 60.02 88.5 58.52 88C57.5713 87.6838 56.8498 88.3264 55.8458 88.2975M55.8458 88.2975C53.3299 88.2252 50.52 87.7131 50.52 89.5C50.52 91.1747 51.8375 90.5887 52.003 90.5085M54.52 70.5C54.52 70.5 57.1221 72.1899 59.02 72.5C60.9567 72.8164 62.2128 72.7647 64.02 72C65.9316 71.1912 67.02 70.5 68.02 68.5M70.02 67C71.52 66.5 72.1097 66.1781 73.52 66C74.6824 65.8532 76.02 66 76.02 66M70.02 67C70.6058 66.0237 71.52 64.5 72.52 64C73.261 63.6295 74.52 63.5 74.52 63.5M70.02 67C68.02 66 67.0049 65.1597 65.02 65C63.6576 64.8904 62.8674 64.77 61.52 65C60.3027 65.2078 59.579 65.3646 58.52 66C57.3361 66.7104 55.52 68.5 55.52 68.5C55.52 68.5 58.0862 67.3945 59.52 67C60.8513 66.6337 61.52 66.5 63.02 66.5C64.52 66.5 65.855 66.4081 67.02 66.5C67.9167 66.5708 69.02 66.5 70.02 67Z" stroke="#EF8134"/>
<path d="M43.02 72.4999C43.02 72.4999 40.9836 71.2634 39.52 70.9999C38.367 70.7924 37.6503 70.6917 36.52 70.9999C35.1616 71.3704 34.4672 71.958 33.52 72.9999C32.7541 73.8424 32.02 75.4999 32.02 75.4999C32.02 75.4999 33.6733 73.7155 35.02 72.9999C36.1106 72.4205 36.8008 72.1963 38.02 71.9999C39.9574 71.6879 43.02 72.4999 43.02 72.4999Z" fill="#EF8134"/>
<path d="M42.52 74.4999C42.52 74.4999 40.9095 76.3713 39.52 76.9999C37.9091 77.7288 36.7723 77.7367 35.02 77.4999C34.2222 77.3921 33.02 76.9999 33.02 76.9999M43.02 72.4999C43.02 72.4999 40.9836 71.2634 39.52 70.9999C38.367 70.7924 37.6503 70.6917 36.52 70.9999C35.1616 71.3704 34.4672 71.958 33.52 72.9999C32.7541 73.8424 32.02 75.4999 32.02 75.4999C32.02 75.4999 33.6733 73.7155 35.02 72.9999C36.1106 72.4205 36.8008 72.1963 38.02 71.9999C39.9574 71.6879 43.02 72.4999 43.02 72.4999Z" stroke="#EF8134"/>
<circle cx="86.02" cy="82" r="0.5" fill="#EF8134"/>
</g>
</svg>
